<?xml version="1.0" standalone="no"?>
<!DOCTYPE svg PUBLIC "-//W3C//DTD SVG 1.1//EN" "http://www.w3.org/Graphics/SVG/1.1/DTD/svg11.dtd" >
<!--
2013-9-30: Created.
-->
<svg>
<metadata>
Created by iconfont
</metadata>
<defs>

<font id="bbx-font" horiz-adv-x="1024" >
  <font-face
    font-family="bbx-font"
    font-weight="500"
    font-stretch="normal"
    units-per-em="1024"
    ascent="896"
    descent="-128"
  />
    <missing-glyph />
    
    <glyph glyph-name="weibiaoti-2" unicode="&#59195;" d="M893.34427514-3.445784730000014h-691.50428585c-8.13534434 0-15.25377043 7.11842608-15.25377044 15.25377223v94.57337917c0 8.13534434 7.11842608 15.25377043 15.25377044 15.25377223s15.25377043-7.11842608 15.25377043-15.25377223v-79.31960875h660.99674498V740.93824208H217.09375972v-85.42111837c0-8.13534434-7.11842608-15.25377043-15.25377043-15.25377043s-15.25377043 7.11842608-15.25377044 15.25377043v100.67488879c0 8.13534434 7.11842608 15.25377043 15.25377044 15.25377223h691.50428585c8.13534434 0 15.25377043-7.11842608 15.25377221-15.25377223v-744.384025c0-8.13534434-7.11842608-15.25377043-15.25377221-15.25377223zM266.92274588 527.38544707H130.65572486c-8.13534434 0-15.25377043 7.11842608-15.25377221 15.25377224s7.11842608 15.25377043 15.25377221 15.25377042h136.26702102c8.13534434 0 15.25377043-7.11842608 15.25377042-15.25377042s-7.11842608-15.25377043-15.25377042-15.25377224zM266.92274588 362.64471997H130.65572486c-8.13534434 0-15.25377043 7.11842608-15.25377221 15.25377222s7.11842608 15.25377043 15.25377221 15.25377042h136.26702102c8.13534434 0 15.25377043-7.11842608 15.25377042-15.25377042s-7.11842608-15.25377043-15.25377042-15.25377222zM266.92274588 208.07317373H130.65572486c-8.13534434 0-15.25377043 7.11842608-15.25377221 15.25377223s7.11842608 15.25377043 15.25377221 15.25377043h136.26702102c8.13534434 0 15.25377043-7.11842608 15.25377042-15.25377043s-7.11842608-15.25377043-15.25377042-15.25377223zM575.04892005 319.93416169c-81.3534453 0-146.43620185 66.09967485-146.43620187 146.43620186s66.09967485 146.43620185 146.43620187 146.43620186 146.43620185-66.09967485 146.43620187-146.43620186-65.08275659-146.43620185-146.43620187-146.43620186z m0 262.36486109c-64.06583831 0-115.92865923-51.8628209-115.92865923-115.92865923s51.8628209-115.92865923 115.92865923-115.92865922 115.92865923 51.8628209 115.9286592 115.92865922-51.8628209 115.92865923-115.9286592 115.92865923zM755.04341759 142.99041713999998c-8.13534434 0-15.25377043 7.11842608-15.25377042 15.25377224 0 88.47187136-74.23501921 160.67305404-164.74072712 160.67305403s-164.74072711-71.18426438-164.74072711-160.67305403c0-8.13534434-7.11842608-15.25377043-15.25377044-15.25377224s-15.25377043 7.11842608-15.25377222 15.25377224c0 105.75947834 87.45495309 191.1805967 195.24826977 191.18059667s195.24826976-86.43803663 195.24826978-191.18059667c0-8.13534434-6.10150781-15.25377043-15.25377224-15.25377224z"  horiz-adv-x="1024" />

    
    <glyph glyph-name="gou1" unicode="&#59194;" d="M1396.364 774.982s-223.419-74.473-484.073-372.364C670.255 132.65499999999997 614.4 20.94500000000005 521.309-128 512-118.69000000000005 372.364 151.27300000000002 0 346.764l195.49 186.181S372.365 411.927 493.383 188.51c0 0 307.2 474.764 902.982 707.491v-121.018z m0 0"  horiz-adv-x="1397" />

    
    <glyph glyph-name="yuanquan" unicode="&#59193;" d="M540.93886719 361.05439452999997m-376.41884766 0a376.41884766 376.41884766 0 1 1 752.83769531 0 376.41884766 376.41884766 0 1 1-752.83769531 0ZM330.70712891-50.627929689999974a1373.16445312 1373.16445312 0 0 0 14.59335937 46.63125C229.53798828 58.083105469999964 145.20078125 174.13212891 129.40947266 314.54355468999995c-25.53222656 227.0390625 137.81953125 431.78818359 364.85947265 457.32128906 125.22568359 14.08271484 243.66621094-29.30273438 328.99921875-109.13818359a1381.303125 1381.303125 0 0 0 39.44619141 28.81318359C767.02519531 784.64765625 631.92587891 835.72529297 488.89619141 819.64042969 235.47060547 791.14013672 53.13359375 562.59462891 81.63300781 309.16992187000005c17.99208984-159.98291016 115.70712891-291.63164063 249.0741211-359.79785156z"  horiz-adv-x="1024" />

    
    <glyph glyph-name="shouji3" unicode="&#59192;" d="M830.744 777.732C830.744 809.664 806.372 834 774.512 834H249.488C217.628 834 193.256 809.628 193.256 777.732v-787.5c0-31.86 24.372-56.232 56.232-56.232h525.024c31.86 0 56.232 24.372 56.232 56.268V777.732z m-37.476-783.72c0-11.268-15.012-22.5-24.408-22.5H243.872c-11.232 0-13.14 13.104-13.14 22.5v127.476h562.536v-127.476z m0 164.988H230.768V781.512c0 11.232 1.872 14.976 13.104 14.976h524.988c9.36 0 24.372-3.744 24.372-14.976V159zM450.116 27.744000000000028h112.5c11.268 0 18.756 7.524 18.756 18.756 0 11.268-7.488 18.72-18.72 18.72H450.08c-11.232 0-18.72-7.452-18.72-18.72 0-11.268 7.488-18.72 18.72-18.72z"  horiz-adv-x="1024" />

    
    <glyph glyph-name="31" unicode="&#59191;" d="M65 734.15l0-571.951 894 0L959 734.15 65 734.15zM929.2 192L94.8 192 94.8 704.35l834.4 0L929.2 192zM325.75 63.649l372.5 0 0-29.8-372.5 0 0 29.8Z"  horiz-adv-x="1024" />

    
    <glyph glyph-name="guanbi1" unicode="&#59190;" d="M798.72 640L256 97.28A21.333 21.333 0 1 0 225.28 128L768 670.72A21.333 21.333 0 1 0 798.72 640zM798.72 97.28a21.333 21.333 0 0 0-30.08 0L225.28 640A21.333 21.333 0 1 0 256 670.72L798.72 128a21.333 21.333 0 0 0 0-30.72z"  horiz-adv-x="1024" />

    
    <glyph glyph-name="duihao" unicode="&#59188;" d="M156.48 409.493a23.467 23.467 0 0 0 33.152-1.28l204.693-221.29-34.453-31.872L155.179 376.32a23.467 23.467 0 0 0 1.28 33.173zM869.27 597.013a23.467 23.467 0 0 0-2.411-33.109L393.237 154.368a23.467 23.467 0 0 0-33.109 2.41l-15.339 17.75L836.16 599.424a23.467 23.467 0 0 0 33.11-2.41z"  horiz-adv-x="1024" />

    
    <glyph glyph-name="tuiguangguanjianci" unicode="&#59187;" d="M937.2073409-58.562744090000024H86.7926591c-8.67770063 0-16.27068846 7.59298782-16.27069039 16.27069038V809.2073409c0 8.67770063 7.59298782 16.27068846 16.27069039 16.27069039h849.32997088c8.67770063 0 16.27068846-7.59298782 16.27068845-16.27069039v-851.49939461c1.08471281-8.67770063-6.508275-16.27068846-15.18597753-16.27069038z m-834.14399333 32.54137885h816.78859206V792.93665243H103.06334757v-818.95801767zM721.3495339 542.3680409599999h-412.19079088c-8.67770063 0-16.27068846 7.59298782-16.27069039 16.27068847s7.59298782 16.27068846 16.27069039 16.27068844h413.2755018c8.67770063 0 16.27068846-7.59298782 16.27069034-16.27068844s-7.59298782-16.27068846-17.35540126-16.27068847zM515.25413846 163.80334173000006c-8.67770063 0-16.27068846 7.59298782-16.27069037 16.27068846V551.04574161c0 8.67770063 7.59298782 16.27068846 16.27069037 16.27068846s16.27068846-7.59298782 16.27068846-16.27068846v-369.88699859c0-9.76241345-7.59298782-17.35540127-16.27068846-17.35540129z"  horiz-adv-x="1024" />

    
    <glyph glyph-name="weibiaoti--38" unicode="&#59185;" d="M718.78393349 276.36557743000003a14.30040978 14.30040978 0 0 0-9.53360707 24.50137067l101.81892106 99.6261922a196.96431765 196.96431765 0 0 1-275.80724647 281.62274798L431.63169444 580.86898308a14.30040978 14.30040978 0 1 0-20.02057502 20.40191837l103.63030655 101.34224148a225.56513891 225.56513891 0 0 0 315.37171696-322.61725726l-101.81892275-99.53085597a14.20507351 14.20507351 0 0 0-10.01028669-4.09945227zM351.16805099 1.4163555699999506h-2.66940846a225.56513891 225.56513891 0 0 0-155.11178546 386.58775876l102.67694736 100.29354434a14.30040978 14.30040978 0 1 0 19.9252371-20.40191837L213.40743212 367.50685969999995a196.96431765 196.96431765 0 0 1 275.33056687-281.71808256l106.10904416 103.7256428a14.30040978 14.30040978 0 0 0 20.02057503-20.40192005l-106.10904415-103.72564282a223.84908966 223.84908966 0 0 0-157.59052304-63.9705015zM378.52950422 221.92868302a14.30040978 14.30040978 0 0 0-10.10562459 24.4060327l272.47048593 272.47048593A14.30040978 14.30040978 0 0 0 660.7242681 498.40328326L388.06310964 225.93279732999997a14.20507351 14.20507351 0 0 0-9.53360542-4.00411431z"  horiz-adv-x="1024" />

    
    <glyph glyph-name="weibiaoti--39" unicode="&#59186;" d="M512 1.9109112500000265A382.08908875 382.08908875 0 1 0 894.08908875 384 382.53597588 382.53597588 0 0 0 512 1.9109112500000265z m0 737.36490759A355.27581884 355.27581884 0 1 1 867.27581884 384 355.63332981 355.63332981 0 0 1 512 739.27581884zM247.44240891 117.11859239l-5.72016433 26.18762572c42.27558737 8.93775665 157.57264625 42.72247606 182.86649775 85.981217 7.50771595 12.78099154 15.1941858 30.38837164 8.93775664 41.82870026-4.55825526 8.93775665-17.87551328 14.83667643-36.9129356 16.5348503-28.95833093 2.59194973-42.90123154 11.6190841-94.82959587 44.68878164l-20.28870596 13.1385025c-58.27417282 38.52173019-120.83846771-37.27044496-121.46411031-38.07484304l-20.82497397 16.98173744c26.81326991 32.89094361 94.20395329 84.46179857 157.12575915 44.06313903l20.37808523-13.13850096C368.45963054 321.43570513 377.9336536 316.25180565999995 399.38426858 314.37487787c28.60081998-2.59194973 49.33641618-13.58538964 58.363549-31.01401581s5.80954205-40.57741503-10.01028637-67.6588166c-35.84040271-61.13425421-183.58151809-95.00835137-200.2951223-98.58345307zM432.81147705 507.51979361H315.36935714a13.40663417 13.40663417 0 0 0 0 26.81326991h117.44211991a13.40663417 13.40663417 0 0 0 0-26.81326991zM374.00104092 368.53768097a13.40663417 13.40663417 0 0 0-13.40663574 13.40663573V515.38502052a13.40663417 13.40663417 0 0 0 26.81326989 0v-133.44070382a13.40663417 13.40663417 0 0 0-13.40663415-13.40663573zM516.73701074 364.60506831h-18.67991136A19.03742074 19.03742074 0 0 0 479.10905639 384V521.55207195a18.948043 18.948043 0 0 0 18.94804299 19.03742074h18.67991136a84.28304308 84.28304308 0 0 0 84.1042892-84.19366535v-7.59709369a84.28304308 84.28304308 0 0 0-84.1042892-84.19366534z m-10.81468444 26.81326992h10.81468444a57.46977474 57.46977474 0 0 1 57.29101927 57.38039542v7.59709369a57.46977474 57.46977474 0 0 1-57.29101927 57.38039702h-10.81468444zM646.0663464 364.60506831a13.40663417 13.40663417 0 0 0-13.40663418 13.40663416V527.00410304a13.40663417 13.40663417 0 1 0 26.81326993 0v-148.99240057a13.40663417 13.40663417 0 0 0-13.40663575-13.40663416zM655.00410304 414.12023998a13.22788025 13.22788025 0 0 0-7.95460307 2.59194815 13.49601193 13.49601193 0 0 0-2.77070363 18.7692891l75.52404192 102.15855637a13.40663417 13.40663417 0 0 0 21.53999273-15.90920615L665.72941134 419.75102654a13.49601193 13.49601193 0 0 0-10.7253083-5.63078656zM738.12523868 364.60506831a13.31725642 13.31725642 0 0 0-11.3509509 6.43518464l-50.23019201 81.6017172a13.40663417 13.40663417 0 1 0 23.14879046 14.03227678l50.23019044-81.60171563a13.31725642 13.31725642 0 0 0-4.37949977-18.41177816 12.95974705 12.95974705 0 0 0-7.41833822-2.05568483z"  horiz-adv-x="1024" />

    
    <glyph glyph-name="wangzhan" unicode="&#59180;" d="M1024 384c0-265.088-222.08-480-496-480-273.952 0-496 214.912-496 480S254.048 864 528 864c273.92 0 496-214.912 496-480zM859.968 680.256l0.64-2.496h1.632c-0.736 0.864-1.568 1.632-2.272 2.496zM286.944 781.888l-2.432-19.584c2.912 1.44 5.536 3.392 8.512 4.8v-2.304l10.912-32.64 10.912-10.88h10.912v-21.76l-21.856-10.88-21.824-10.88L271.168 656s-2.72-19.04-10.912-21.76-9.536-14.944-10.912-21.76c-1.376-6.816 0-21.76 0-21.76l-21.856 10.88-32.736 21.76-21.824 10.88 10.912 32.64 10.912 32.64-11.104-5.536c8.032 7.328 17.152 13.44 25.728 20.16l7.232 18.016-0.672-0.192c-39.488-33.472-73.824-72.864-100.192-117.728 14.112 21.024 29.6 41.056 47.072 59.328L151.104 656l-10.912-10.88-21.824-32.64-9.344-9.28c-1.696-3.072-3.072-6.272-4.704-9.376l14.048-13.984 21.824-10.88s27.296-9.504 32.736-21.76c5.44-12.224 21.824-32.64 21.824-32.64v-10.88l10.912-21.76-32.736 10.88-21.856 10.88-21.792 10.88-21.824-10.88v-10.88l21.824-10.88 10.912-10.88s-13.664-8.16-21.824-10.88c-8.192-2.72-32.736-21.76-32.736-21.76l-21.824-21.76-10.304-20.544c-0.128-4.064-0.64-8-0.64-12.096 0-37.568 5.056-73.888 13.632-108.8h19.136l43.648-10.88 21.824-10.88 21.856-10.88 21.824-10.88 21.824-32.64 32.736 10.88h21.824v-32.64l-10.912-21.76s-12.288-10.88-21.824-21.76c-9.536-10.88-4.096-6.784-21.824-21.76-17.728-14.944-6.816-9.504-21.824-21.76-15.008-12.224 0-8.16-10.912-21.76-0.608-0.768-1.024-1.472-1.568-2.24 83.328-85.728 199.84-139.2 329.024-139.2 253.184 0 458.432 204.608 458.432 456.96 0 6.016-0.672 11.872-0.896 17.824l-20.928-6.944-21.824-32.64v-43.52h-21.824s-16.384 16.32-21.824 21.76c-5.472 5.44 0 21.76 0 21.76l-10.912 32.64-32.736 21.76-32.736 10.88-21.824 21.76H762.4l32.736-32.64 10.912-21.76L784.192 384l-21.856-21.76 10.912-21.76-21.824-21.76-21.824-21.76-10.912-32.64 10.912-21.76-10.912-43.52-32.736-32.64-21.824-43.52L642.304 112l-32.736 10.88-21.824 32.64-10.912 43.52v65.28l-10.912 21.76v10.88l-21.824 10.88h-43.648l-21.824 10.848-32.736 10.88-10.912 43.52V405.76l43.68 43.52 21.824 10.88 32.736 21.76s21.856-4.096 32.736-10.88c10.912-6.784 21.824-21.76 21.824-21.76h32.736l43.648-10.88 21.824 21.76 21.856 10.88-32.736 10.88-21.824 10.88-32.736 10.88-32.736 10.88h-32.736L533.12 492.8l-54.56-10.88-21.856 10.88 21.856 21.76 21.824 10.88 10.912 10.88V547.2l-21.824 10.88-21.824 21.76 10.912 21.76 10.912 10.912h10.912l10.912-21.792 21.824-10.88h21.856l21.824 10.88v21.792h-32.736V634.24l21.824 10.88 21.824 21.76 10.912 32.64 32.736 21.76 32.736-10.88h21.824l10.912-32.64L707.744 656l21.856 21.76 32.736 10.88 43.68 10.88 27.68 9.216C750.88 790.432 637.024 840.96 511.296 840.96c-81.664 0-158.016-21.696-224.352-59.072zM478.56-62.048c1.024 0 2.048 0.064 3.072 0.064-1.024-0.032-2.048-0.064-3.072-0.064z m0 0c-1.056 0-2.048 0.064-3.104 0.064 1.056-0.032 2.048-0.064 3.104-0.064zM576.8-51.2c1.024 0 2.048 0.064 3.072 0.064-1.024 0.032-2.048-0.064-3.072-0.064z m0 0c-1.056 0-2.048 0.064-3.104 0.064 1.024 0.032 2.048-0.064 3.104-0.064zM512-128C229.216-128 0 101.248 0 384S229.216 896 512 896c282.752 0 512-229.216 512-512s-229.248-512-512-512z m0 960C264.576 832 64 631.424 64 384s200.576-448 448-448 448 200.576 448 448S759.424 832 512 832z"  horiz-adv-x="1024" />

    
    <glyph glyph-name="tuiguang" unicode="&#59181;" d="M549.010286 646.875429v-472.137143l354.377143-184.685715c55.734857-26.331429 120.612571 12.946286 120.612571 72.996572V778.093714c0 59.977143-64.877714 99.328-120.612571 72.996572L549.010286 646.875429zM481.28 640h-217.965714C128.219429 640 10.020571 546.669714 0.731429 422.985143c-9.874286-130.633143 97.572571-240.201143 235.373714-249.417143 9.508571-0.512 18.139429-5.339429 23.04-12.873143l150.674286-239.177143a28.16 28.16 0 0 1 17.115428-12.068571c7.314286-1.755429 14.994286-0.877714 21.504 2.633143l122.587429 64.877714a26.331429 26.331429 0 0 1 13.165714 15.725714 24.137143 24.137143 0 0 1-2.779429 19.748572l-100.937142 160.329143L481.28 640zM1024 582.802286c52.370286-27.940571 83.894857-75.117714 83.894857-125.659429 0-50.541714-31.451429-97.718857-83.894857-125.659428V274.285714c89.088 32.621714 146.285714 104.082286 146.285714 182.857143 0 78.701714-57.197714 150.235429-146.285714 182.857143v-57.197714z"  horiz-adv-x="1170" />

    
    <glyph glyph-name="pingtai" unicode="&#59182;" d="M96.019384 896h835.18427c63.225033-19.028893 81.762858-64.084402 80.657955-126.572833-2.455341-125.46793-0.736602-250.935859-0.736602-376.403789v-22.711905H7.627105c-0.491068 4.051313-1.350438 7.243256-1.350438 10.312433 0 141.059345-0.491068 282.118691 0.491068 423.178036 0.122767 14.732047 6.26112 30.568997 13.258842 43.950606 15.83695 29.955161 44.809975 41.372497 75.992807 48.247452zM390.046479 55.905047v121.907685h-281.136554c-62.488431 0-102.51049 40.02206-102.756025 102.387724v37.812252h1001.656396c18.292291-88.269512-30.814531-142.164249-106.193502-140.568277-83.849898 1.841506-167.822563 0.368301-251.672461 0.368301h-21.975303v-121.907685c50.82556 0 100.791752 0.122767 150.635176-0.122767 9.084762 0 18.292291-0.245534 27.008752-2.209807 22.834672-5.156216 38.794389-26.149383 37.566718-48.124685-1.350438-22.220837-19.397195-40.758662-42.722935-43.33677-7.120489-0.859369-14.240978-0.736602-21.361467-0.736602H238.551934c-7.120489 0-14.363745 0-21.361468 0.736602-23.939576 2.823642-41.24973 20.379331-42.968469 43.091236-1.595972 22.343604 13.504376 42.600168 37.075651 48.247452 8.716461 2.08704 18.046757 2.455341 27.008752 2.455341 49.843424 0.122767 99.932382 0 151.740079 0z"  horiz-adv-x="1059" />

    
    <glyph glyph-name="zhuanqian" unicode="&#59183;" d="M51.2 156.289321c0 250.813409 140.916187 518.467147 462.162096 518.467147C819.508014 674.756468 972.55538 406.949171 972.55538 156.289321 972.55538-38.628528 766.376521-128 511.87769-128s-460.67769 98.533839-460.67769 284.289321z m313.10727 17.24982a17.761684 17.761684 0 0 1 17.761684-17.761684h96.332824v-54.411154a32.759302 32.759302 0 0 1 32.759302-32.759302h1.023729a32.708116 32.708116 0 0 1 32.759302 32.759302v54.411154h96.94706a17.710498 17.710498 0 0 1 17.505753 17.710498 17.761684 17.761684 0 0 1-17.505753 17.710498H544.944111v49.292513l0.56305 0.614237h96.38401a17.761684 17.761684 0 0 1 17.505753 17.761684 17.710498 17.710498 0 0 1-17.505753 17.710498h-76.26775l84.764695 152.637874a32.759302 32.759302 0 0 1-28.613204 48.678276 32.759302 32.759302 0 0 1-29.176253-17.81287l-80.925715-158.26838-80.925714 158.26838a32.759302 32.759302 0 0 1-29.176253 17.81287 32.759302 32.759302 0 0 1-28.66439-48.678276l84.815881-152.637874H382.017768a17.761684 17.761684 0 0 1-17.761684-17.761685 17.761684 17.761684 0 0 1 17.761684-17.761684h95.769773l0.563051-0.614237v-49.292513H382.017768a17.761684 17.761684 0 0 1-17.659312-17.608125z m10.237282 558.443734a308.756425 308.756425 0 0 0-75.448768 93.67113 31.018964 31.018964 0 0 0 16.584397 45.76065A603.999638 603.999638 0 0 0 502.510577 895.7282a570.216607 570.216607 0 0 0 180.688027-23.596935 31.018964 31.018964 0 0 0 15.97016-46.067769 364.396053 364.396053 0 0 0-75.14165-94.182994 258.235438 258.235438 0 0 0-119.161962-22.419648A326.722855 326.722855 0 0 0 374.390993 731.931688z"  horiz-adv-x="1024" />

    
    <glyph glyph-name="youquanlogo" unicode="&#59184;" d="M696.288123 167.028665c12.900493 6.730692 26.361877 12.526566 38.514515 20.37904a388.697462 388.697462 0 0 1 145.644696 491.340515l-2.804455 6.356764 1.682673 1.308746c12.713529-12.526566 26.174913-24.49224 37.392733-37.392733a386.640862 386.640862 0 0 0 97.221107-200.985941l3.365346-20.939931v-80.020449a24.866168 24.866168 0 0 1-1.49571-3.926237c-3.178382-17.013694-5.234983-34.214351-9.348183-50.854117a386.266934 386.266934 0 0 0-441.047289-287.550119 380.284097 380.284097 0 0 0-260.814314 172.941391l-3.926237 5.421947a375.610005 375.610005 0 0 1 227.347818-186.589739 386.079971 386.079971 0 0 1 295.77652 28.979368l-2.991419-4.487128A386.266934 386.266934 0 0 0 586.166523-121.643235c-13.087457-2.617491-26.174913-4.113201-39.26237-6.169801h-63.75461c-12.900493 2.0566-25.800986 3.739273-38.514515 5.982837A385.51908 385.51908 0 0 0 135.397124 183.481468a380.284097 380.284097 0 0 0 112.1782 354.109184 315.594669 315.594669 0 0 0 80.207413 58.1457l-6.169801-8.600329a385.893007 385.893007 0 0 1-67.30692-197.246668 381.592843 381.592843 0 0 1 28.792404-170.697827 28.979368 28.979368 0 0 1 8.787293-11.404783 388.697462 388.697462 0 0 1 385.706043-49.732336c3.178382 1.308746 6.169801 2.991419 9.16122 4.674092zM696.288123 167.028665l-8.226402-4.300164a22.248676 22.248676 0 0 0 2.243564 6.356765 384.958189 384.958189 0 0 1 77.029031 195.190067 380.284097 380.284097 0 0 1-30.849005 195.937922 24.305277 24.305277 0 0 1-7.852474 9.348184 373.927332 373.927332 0 0 1-178.737265 69.550484A387.949607 387.949607 0 0 1 116.700757 297.342341a382.340697 382.340697 0 0 1 39.636298-219.682308l2.991418-6.543728a387.388716 387.388716 0 1 0 563.134563 513.215263c-2.991419 18.696367-54.406427 84.694541-91.238269 115.917473a382.340697 382.340697 0 0 1-129.565821 72.728867 388.884426 388.884426 0 0 1-290.16761-18.696367l-1.308746 2.0566c10.469965 11.030856 20.566003 22.43564 31.59686 32.718642A383.836407 383.836407 0 0 0 453.235357 891.699836a387.57568 387.57568 0 0 0 251.840058-718.50137c-3.178382-1.869637-6.169801-4.113201-8.787292-6.169801zM558.869828 396.24612a214.821253 214.821253 0 0 1 20.192076 68.802629H445.943774l-1.49571 23.370459h172.941392a558.086544 558.086544 0 0 0-29.353296-105.073581c21.874749-15.331021 43.749498-29.353296 63.941574-45.432171s39.449334-34.401315 58.706591-51.975899a8.413365 8.413365 0 0 0 2.804455-6.543728c-5.795874-20.005112-11.965675-40.010225-18.696367-61.137119l-128.070111 120.030674c-5.234983-7.852474-9.909074-15.331021-14.957093-22.622604a145.270769 145.270769 0 0 0-47.862699-45.619135 85.816323 85.816323 0 0 0-54.219463-10.656929 53.284645 53.284645 0 0 0-45.806098 42.627716 127.883148 127.883148 0 0 0 14.209238 101.895198c13.835311 23.557422 31.409896 30.10115 62.071938 21.313858 24.49224-7.104619 48.049662-17.387621 72.167975-26.361877z m-18.696367-37.392733c-17.574585 12.526566-34.401315 24.679204-51.415008 36.457915a50.106263 50.106263 0 0 1-12.152638 5.234982 38.888443 38.888443 0 0 1-51.788936-20.93993 101.708234 101.708234 0 0 1-10.469965-52.349827 40.945043 40.945043 0 0 1 62.258901-37.392733 155.366807 155.366807 0 0 1 63.193719 68.989593zM381.067381 520.016067h-24.305276v23.370458h25.053131v24.118313h51.041081l-4.113201-23.931349h222.486763v-23.557422H432.669353c-6.917656 0-9.535147-1.869637-11.21782-8.787292a1188.71499 1188.71499 0 0 0-63.75461-215.382144 430.016432 430.016432 0 0 0-27.483659-49.732335 69.924411 69.924411 0 0 0-15.517984-15.704948 750.846084 750.846084 0 0 1 66.372101 289.606719z"  horiz-adv-x="1024" />

    
    <glyph glyph-name="huabanfuben" unicode="&#59175;" d="M283.0336 588.8v-491.52h491.52V588.8z m450.56-187.1872H698.368a69.0176 69.0176 0 0 1-8.6016 0 206.0288 206.0288 0 0 1-69.0176-10.6496 163.84 163.84 0 0 1-44.6464-24.9856 199.68 199.68 0 0 1-31.5392-31.5392A256.6144 256.6144 0 0 0 516.5056 302.08a125.7472 125.7472 0 0 0-35.84-23.7568 127.3856 127.3856 0 0 0-54.0672-9.0112 148.2752 148.2752 0 0 0-42.1888 6.5536 103.8336 103.8336 0 0 0-32.3584 15.9744 77.4144 77.4144 0 0 0-20.48 22.9376 55.9104 55.9104 0 0 0-7.3728 28.2624V547.84h409.6v-30.3104zM426.8032 454.4512m-51.2 0a51.2 51.2 0 1 1 102.4 0 51.2 51.2 0 1 1-102.4 0Z"  horiz-adv-x="1024" />

    
    <glyph glyph-name="huabanfuben1" unicode="&#59176;" d="M745.6768 279.552a4.9152 4.9152 0 0 1 2.8672 2.2528 6.5536 6.5536 0 0 1 1.024 4.7104 39.1168 39.1168 0 0 1-2.8672 10.6496 23.1424 23.1424 0 0 1-4.9152 7.7824 6.144 6.144 0 0 1-3.4816 1.6384 5.9392 5.9392 0 0 1-3.4816 0 23.552 23.552 0 0 0-11.8784-2.048 15.36 15.36 0 0 0-10.8544 4.9152 17.8176 17.8176 0 0 0-5.3248 10.24 20.48 20.48 0 0 0 1.4336 11.0592 8.192 8.192 0 0 1 0 2.4576 4.5056 4.5056 0 0 1 0 3.2768 24.576 24.576 0 0 1-3.8912 4.3008 20.48 20.48 0 0 1-5.3248 3.2768 40.96 40.96 0 0 1-5.9392 2.048h-5.7344a4.3008 4.3008 0 0 1-3.072-1.4336 9.8304 9.8304 0 0 1-2.2528-3.072 20.48 20.48 0 0 0-6.9632-9.0112 18.6368 18.6368 0 0 0-11.4688-3.4816 16.384 16.384 0 0 0-10.6496 3.6864 20.48 20.48 0 0 0-6.5536 8.6016 7.9872 7.9872 0 0 1-2.048 3.2768 4.3008 4.3008 0 0 1-3.6864 1.4336h-4.9152a37.0688 37.0688 0 0 1-6.3488-1.8432 22.1184 22.1184 0 0 1-6.144-3.2768 9.0112 9.0112 0 0 1-3.8912-4.5056 3.2768 3.2768 0 0 1 0-2.4576 20.48 20.48 0 0 1 0-2.4576 33.5872 33.5872 0 0 0 0-3.6864 26.8288 26.8288 0 0 0 0-5.7344 25.6 25.6 0 0 0-1.4336-6.3488 12.4928 12.4928 0 0 0-3.072-5.3248 20.48 20.48 0 0 0-10.6496-5.3248 23.552 23.552 0 0 0-11.264 1.4336h-3.072a5.5296 5.5296 0 0 1-2.8672 0 10.0352 10.0352 0 0 1-3.2768-3.2768 40.96 40.96 0 0 1-2.8672-5.12 26.8288 26.8288 0 0 1-1.8432-5.7344 26.4192 26.4192 0 0 1 0-5.12 7.5776 7.5776 0 0 1 1.2288-4.3008 4.3008 4.3008 0 0 1 2.6624-2.6624 27.0336 27.0336 0 0 0 9.8304-6.9632 15.7696 15.7696 0 0 0 4.5056-11.264 16.384 16.384 0 0 0-4.5056-11.264 25.3952 25.3952 0 0 0-9.8304-7.168 5.7344 5.7344 0 0 1-3.6864-5.12 18.432 18.432 0 0 1 0-5.5296 34.816 34.816 0 0 1 2.048-6.5536l3.072-5.9392a8.192 8.192 0 0 1 3.8912-3.2768 7.3728 7.3728 0 0 1 5.12 0 27.2384 27.2384 0 0 0 7.7824 1.4336 20.48 20.48 0 0 0 6.9632 0 11.4688 11.4688 0 0 0 6.144-3.4816 15.7696 15.7696 0 0 0 4.7104-10.0352 18.8416 18.8416 0 0 0-1.4336-9.6256 11.4688 11.4688 0 0 1-1.4336-4.7104 5.12 5.12 0 0 1 1.024-3.072 15.5648 15.5648 0 0 1 3.6864-3.6864 40.96 40.96 0 0 1 5.9392-3.2768l6.3488-2.2528a20.48 20.48 0 0 1 5.7344 0 7.168 7.168 0 0 1 4.096 0 6.5536 6.5536 0 0 1 2.6624 3.072 20.48 20.48 0 0 0 6.9632 9.6256 16.9984 16.9984 0 0 0 11.264 4.096 16.384 16.384 0 0 0 11.264-4.096 20.48 20.48 0 0 0 6.7584-9.8304 7.7824 7.7824 0 0 1 2.048-2.6624 4.9152 4.9152 0 0 1 3.072-1.2288h5.5296l5.9392 2.048 5.3248 2.8672a12.0832 12.0832 0 0 1 3.2768 3.072 6.5536 6.5536 0 0 1 0 7.168 20.48 20.48 0 0 0-1.6384 11.264 18.0224 18.0224 0 0 0 5.12 10.4448 12.4928 12.4928 0 0 0 4.9152 3.072l5.5296 1.2288a26.4192 26.4192 0 0 0 5.7344 0h4.5056a7.9872 7.9872 0 0 1 3.6864 0 9.216 9.216 0 0 1 3.8912 1.2288 9.4208 9.4208 0 0 1 3.8912 3.6864 21.7088 21.7088 0 0 1 3.072 5.7344 35.0208 35.0208 0 0 1 1.8432 6.144 16.1792 16.1792 0 0 1 0 5.3248 8.6016 8.6016 0 0 1-2.6624 4.3008l-2.2528 1.4336a17.6128 17.6128 0 0 0-8.8064 6.5536 18.6368 18.6368 0 0 0-3.4816 11.0592 17.8176 17.8176 0 0 0 4.096 11.264 21.7088 21.7088 0 0 0 11.264 4.096z m-44.6464-33.792a44.8512 44.8512 0 0 0-8.6016-12.6976 36.6592 36.6592 0 0 0-12.6976-8.6016 39.7312 39.7312 0 0 0-15.5648-3.072 38.0928 38.0928 0 0 0-15.36 3.072 38.7072 38.7072 0 0 0-12.6976 8.6016 44.2368 44.2368 0 0 0-8.3968 12.6976 40.96 40.96 0 0 0 0 30.9248 40.96 40.96 0 0 0 8.3968 12.4928 38.7072 38.7072 0 0 0 12.6976 8.6016 38.0928 38.0928 0 0 0 15.36 3.072 39.7312 39.7312 0 0 0 15.5648-3.072 36.6592 36.6592 0 0 0 12.6976-8.6016 40.96 40.96 0 0 0 8.6016-12.4928 40.96 40.96 0 0 0 0-30.9248zM770.8672 402.8416l-93.5936 88.6784v64.9216h-40.96v-26.2144L529.8176 629.76 286.72 405.7088a11.8784 11.8784 0 0 1 0-16.5888h62.6688v-203.776h140.6976v125.3376h50.5856a133.7344 133.7344 0 0 0 125.1328 85.4016 131.2768 131.2768 0 0 0 44.2368-7.7824 488.6528 488.6528 0 0 1 61.44 0 11.6736 11.6736 0 0 1-0.6144 14.5408z"  horiz-adv-x="1024" />

    
    <glyph glyph-name="huabanfuben2" unicode="&#59177;" d="M283.0336 615.0144V203.776h491.52V615.0144z m155.8528-96.4608a61.44 61.44 0 1 0-61.44-61.44 61.44 61.44 0 0 0 61.44 61.44z m0-218.5216c-64.3072 0-92.7744 14.7456-92.7744 20.48a65.7408 65.7408 0 0 0 6.144 25.8048 78.0288 78.0288 0 0 0 81.92 48.7424h10.4448a79.6672 79.6672 0 0 0 81.92-49.5616 71.2704 71.2704 0 0 0 5.9392-25.6c0-5.5296-29.4912-19.8656-93.5936-19.8656z m272.5888 2.048h-122.88v40.96h122.88z m0 85.4016h-122.88v40.96h122.88z m0 84.3776h-122.88v40.96h122.88z"  horiz-adv-x="1024" />

    
    <glyph glyph-name="huaban" unicode="&#59178;" d="M771.6864 453.0176a9.216 9.216 0 0 1-7.3728 2.8672h-140.6976A71.68 71.68 0 0 1 696.32 527.36a71.68 71.68 0 0 1-71.68 71.68 64.7168 64.7168 0 0 1-53.8624-24.576l-40.96-52.8384-40.96 52.8384a65.1264 65.1264 0 0 1-53.8624 24.576 71.68 71.68 0 0 1-71.68-71.68 71.68 71.68 0 0 1 71.68-71.68h-141.7216a9.6256 9.6256 0 0 1-7.3728-2.8672 10.0352 10.0352 0 0 1-2.8672-7.3728v-102.4a10.6496 10.6496 0 0 1 2.8672-7.3728 10.0352 10.0352 0 0 1 7.3728-2.8672h30.72V261.12h184.32v72.4992h40.96V261.12h184.32v-40.96h-184.32v-112.4352h-40.96V220.16h-184.32v-81.92a29.0816 29.0816 0 0 1 9.0112-21.7088 29.4912 29.4912 0 0 1 21.7088-9.0112h348.16a29.4912 29.4912 0 0 1 21.7088 9.0112 29.0816 29.0816 0 0 1 9.0112 21.7088v194.56h30.72a10.4448 10.4448 0 0 1 7.3728 3.072 9.8304 9.8304 0 0 1 2.8672 7.168v102.4a10.0352 10.0352 0 0 1-2.8672 7.5776z m-337.7152 43.8272a30.72 30.72 0 0 0-30.72 30.72 29.4912 29.4912 0 0 0 9.0112 21.7088 29.0816 29.0816 0 0 0 21.7088 9.0112 27.4432 27.4432 0 0 0 22.1184-9.8304l40.96-51.6096zM601.4976 547.84a27.4432 27.4432 0 0 0 22.1184 9.8304 29.0816 29.0816 0 0 0 21.7088-9.0112A29.4912 29.4912 0 0 0 655.36 527.36a29.9008 29.9008 0 0 0-9.0112-21.7088 30.1056 30.1056 0 0 0-21.7088-9.0112h-61.44z"  horiz-adv-x="1024" />

    
    <glyph glyph-name="huabanfuben3" unicode="&#59179;" d="M743.8336 175.9232V430.2848L598.8352 527.36v98.0992H325.4272v-449.536h-42.3936V138.24h491.52v37.6832zM391.7824 525.5168H532.48v-37.4784h-140.6976z m0-78.4384H532.48v-37.2736h-140.6976z m0-78.2336H532.48v-37.4784h-140.6976z m207.0528 113.4592l107.52-72.0896v-234.2912h-107.52z"  horiz-adv-x="1024" />

    
    <glyph glyph-name="weibiaoti-1" unicode="&#59174;" d="M736.42666667 304.64c-54.61333333 0-101.54666667-29.86666667-126.29333334-73.38666667L407.89333333 336.21333332999995c0 14.50666667-2.56 28.16-6.82666666 40.96l153.6 161.28c15.36-7.68 33.28-12.8 52.05333333-12.8 63.14666667 0 114.34666667 51.2 114.34666667 114.34666667s-51.2 114.34666667-114.34666667 114.34666667-114.34666667-51.2-114.34666667-114.34666667c0-17.92 4.26666667-35.84 11.94666667-51.2L358.4 437.76c-23.04 18.77333333-52.05333333 29.86666667-83.62666667 29.86666667-73.38666667 0-133.97333333-59.73333333-133.97333333-133.97333334 0-73.38666667 59.73333333-133.97333333 133.97333333-133.97333333 48.64 0 90.45333333 25.6 114.34666667 64l202.24-104.96v-0.85333333c0-80.21333333 65.70666667-145.92 145.92-145.92 80.21333333 0 145.92 65.70666667 145.92 145.92-0.85333333 81.06666667-65.70666667 146.77333333-146.77333333 146.77333333z"  horiz-adv-x="1024" />

    
    <glyph glyph-name="zhandianwangzhanhulianwangie" unicode="&#59173;" d="M957.40207408 653.91122963c19.17534815 67.23508148 26.45712592 196.85072592-93.57084445 213.59881482-95.9981037 12.01493333-211.17155555-50.36562963-271.24622222-91.26494815-19.17534815 2.42725925-40.77795555 4.85451852-62.38056296 4.85451852-156.07277037 2.42725925-256.80402963-50.36562963-343.21445927-163.23318519-31.19028148-40.77795555-59.9533037-110.4402963-69.66234073-189.56894815 43.20521482 74.3954963 177.67537778 211.17155555 319.30595555 266.3917037 0 0-213.59881482-153.64551111-319.30595555-369.67158518v-2.42725925c-4.85451852-9.58767408-9.58767408-19.17534815-14.4421926-31.1902815-103.15851852-256.80402963-19.17534815-367.24432592 60.07466667-386.41967407 71.96823703-19.17534815 172.82085925 16.74808889 254.37677037 103.15851852 136.77605925-31.19028148 273.67348148 4.85451852 324.03911111 31.19028148 95.9981037 52.79288889 163.23318518 146.36373333 177.67537778 242.4832H654.96557037s-12.01493333-83.98317037-153.64551112-83.98317036c-129.61564445 0-136.77605925 151.21825185-136.77605925 151.21825185h559.24053333s9.58767408 163.23318518-69.66234074 271.24622222c-45.63247408 59.9533037-105.58577778 112.86755555-189.56894814 141.63057778 26.45712592 19.17534815 69.66234075 48.05973333 108.01303703 57.64740741 71.96823703 19.17534815 120.02797037 7.16041482 151.21825185-45.63247408 40.77795555-71.96823703-24.02986667-237.62868148-24.02986666-237.62868148s38.47205925 47.93837037 57.64740741 117.60071111zM378.98619259 17.726577779999957c-110.4402963-91.26494815-201.58388148-79.25001482-237.62868148-26.45712593-31.19028148 48.05973333-36.0448 132.0429037 0 249.64361482 16.74808889-45.63247408 43.20521482-88.83768889 81.55591111-127.18838519 48.05973333-47.93837037 100.85262222-79.12865185 156.07277037-95.9981037z m-4.85451851 468.09694814s4.85451852 108.01303703 122.45522962 117.60071111c100.85262222 9.58767408 153.64551111-36.0448 170.3936-122.45522962l-292.84882962 4.85451851z m0 0"  horiz-adv-x="1024" />

    
    <glyph glyph-name="jiantouxia" unicode="&#59172;" d="M1024 640L512 128 0 640h1024z"  horiz-adv-x="1024" />

    
    <glyph glyph-name="weibiaoti--32" unicode="&#59166;" d="M495.03018009-6.877881860000002a32.41426308 32.41426308 0 0 0-22.59464888 9.53360539L131.70442066 333.37654739000004a32.31892681 32.31892681 0 0 0-0.66735209 45.76131367l379.9142343 390.87788186A13.82373019 13.82373019 0 0 0 521.53360709 774.87788186l350.83673345-5.6248273a14.20507351 14.20507351 0 0 0 13.91906644-13.44238517l15.73045026-350.64606265a14.20507351 14.20507351 0 0 0-4.00411432-10.58230253L518.19684485 2.6557235300000457a31.93758347 31.93758347 0 0 0-23.16666476-9.53360539z m-2.66941011 29.6495167a3.81344352 3.81344352 0 0 1 5.33882024 0l375.52877494 386.96910376-14.8724273 330.91149472L527.15843441 746.2770623l-375.62411122-387.06444004a4.19478684 4.19478684 0 0 1-1.04869713-2.6694101 3.52743474 3.52743474 0 0 1 1.1440334-2.57407387zM506.08916393 124.87656464999998a14.01440269 14.01440269 0 0 0-9.53360709 4.09945059L251.73253125 366.36282799a14.30040978 14.30040978 0 1 0 19.92523879 20.49725464l244.44168055-237.38681276a14.30040978 14.30040978 0 0 0 0-20.21124586 14.58641855 14.58641855 0 0 0-10.01028666-4.38545936zM717.35389303 507.93689036a87.89985632 87.89985632 0 1 0 63.11247688 26.59876322 87.70918379 87.70918379 0 0 0-63.11247688-26.59876322z m0 147.19888966a59.39437131 59.39437131 0 0 1-41.37585427-101.91425729 59.48970756 59.48970756 0 0 1 83.99107653 1.23936795 59.39437131 59.39437131 0 0 1-42.61522226 100.67488934z"  horiz-adv-x="1024" />

    
    <glyph glyph-name="weibiaoti--33" unicode="&#59167;" d="M512 1.9109112500000265A382.08908875 382.08908875 0 1 0 894.08908875 384 382.53597588 382.53597588 0 0 0 512 1.9109112500000265z m0 737.36490759A355.27581884 355.27581884 0 1 1 867.27581884 384 355.63332981 355.63332981 0 0 1 512 739.27581884zM625.95639436 108.80647836000003c-20.37808525 0-39.95177086 10.45717506-56.84413056 30.47774936a61.22363195 61.22363195 0 0 0-5.89891981 69.9826331c21.27186109 36.37666915 68.01632598 126.20112107 43.07998703 173.03496527-9.74215472 18.41177814-31.10339197 28.77957547-63.4580707 30.92463806-68.37383694 4.46887751-105.10801547 17.87551328-116.19083471 40.93492442-4.11136816 8.93775665-5.98829753 24.04256471 8.93775664 42.72247606a60.59798934 60.59798934 0 0 0 41.20305763 22.61252402c23.23816663 2.77070521 51.48147723 18.50115588 53.62653826 77.75848073 0.98315356 30.74588258-4.11136816 51.74961044-13.85352288 56.3078657S491.17502761 648.8257243200001 485.18673009 643.19493774c-15.90920617-14.30040998-27.4389125-36.2872914-37.7173321-55.77160082-11.26157314-21.45061498-21.09310561-39.95177086-35.75102497-48.35326266-12.95974705-7.41833823-23.86380924-8.13335856-32.62281197-2.23443876-14.83667643 10.18904186-13.40663417 34.85725072-10.45717504 55.14595668A65.33500007 65.33500007 0 0 1 368.99589696 605.65635956l-2.86008293-1.16190746c-1.25128521-0.6256426-5.18389943-3.30697007-8.40149022-5.36265336-18.76928909-12.69161382-50.31956819-33.9634749-72.39582735-16.08796162s-10.63593053 77.04346036-4.55825682 101.44353444l26.00887182-6.52456082c-8.04398081-32.265301-10.27841958-68.2844592-4.46887754-74.09400124 4.29012363-3.48572554 17.87551328 2.3238165 40.48803572 17.87551169a116.19083471 116.19083471 0 0 0 11.9765935 7.41833821c12.51285835 5.80954205 22.88065724 5.80954205 30.65650483 0 12.33410444-8.93775665 11.26157314-27.70704573 9.38464533-40.75616893a84.10428761 84.10428761 0 0 1-0.89377583-27.88579964 31.01401423 31.01401423 0 0 1 4.11136817 1.96630553c7.86522533 4.55825526 16.71360425 21.36123726 25.2938499 37.62795437 11.26157314 21.36123726 24.04256471 45.67193517 43.4374964 63.18993906 10.90406219 9.83153247 37.53857663 25.65136087 60.77674482 14.92605259 21.18248334-9.83153247 30.83526032-36.55542463 29.31584033-81.51233787-2.77070521-85.44495212-54.78844729-100.81789342-76.95408263-103.49922089a33.87409716 33.87409716 0 0 1-23.23816661-12.4234806c-3.48572554-4.46887751-7.23958273-10.81468603-5.18389946-15.28356355s14.92605259-20.10995203 93.04204583-25.20447376c42.18621119-2.77070521 70.96578666-17.87551328 85.35557282-44.68878161 30.12023998-56.66537665-14.38978772-149.08177831-43.52687257-199.13321484a34.23160655 34.23160655 0 0 1 3.21759232-39.23675053c12.42348219-14.74729868 25.38322766-21.62937044 38.52173017-20.82497239 20.82497239 1.34066295 44.68878162 22.34439082 69.08885729 60.68736552a50.05143653 50.05143653 0 0 0 4.8263885 6.61394012c50.94521236 60.68736709 62.56429487 118.06776253 65.42437625 146.75796182a33.9634749 33.9634749 0 0 1-4.3794998 19.84181881c-12.51285835 22.16563531-30.92463806 65.15624461-12.87036931 104.39299513 14.38978772 31.19276972 48.17450715 52.28587532 100.46038245 62.56429489l5.18389946-26.27700347c-43.34811867-8.93775665-70.69765343-24.48945341-81.24420623-47.45948683-13.58538964-29.4945958 3.75385718-65.78188721 11.79783799-79.99291944a60.59798934 60.59798934 0 0 0 7.7758476-35.75102656c-2.86008137-31.81841231-15.9985839-95.27648459-71.50205152-161.59463667a34.94662846 34.94662846 0 0 1-2.68132746-3.66448101c-29.4945958-46.565711-59.79359126-71.50205153-89.82445191-73.20022543zM247.44240891 117.02921464999997l-5.72016433 26.27700346c42.27558737 8.93775665 157.57264625 42.72247606 182.86649775 85.981217 7.50771595 12.78099154 15.1941858 30.38837164 8.93775664 41.82870026-4.55825526 8.93775665-17.87551328 14.83667643-36.9129356 16.5348503-28.95833093 2.59194973-42.90123154 11.6190841-94.82959587 44.68878164l-20.28870596 13.1385025c-58.45292675 37.53857663-119.31904929-35.75102654-121.91099901-38.52173017l-20.73559464 16.98173745c26.81326991 32.89094361 94.29333102 84.46179857 157.12575911 44.06313901l20.3780837-13.13850252c52.10711983-33.42720847 61.58114131-38.61110791 82.94238014-40.48803571 28.69019772-2.59194973 49.5151701-13.58538964 58.45292674-31.01401581s5.80954205-40.57741503-10.01028637-67.6588166c-35.84040271-61.13425421-183.58151809-95.00835137-200.2951223-98.67283081z"  horiz-adv-x="1024" />

    
    <glyph glyph-name="weibiaoti--34" unicode="&#59168;" d="M858.45127411 129.73870361000002H165.54872589a42.99656726 42.99656726 0 0 0-42.90123104 42.90123101V694.50957633a42.99656726 42.99656726 0 0 0 42.90123104 42.90123099h692.90254822a42.99656726 42.99656726 0 0 0 42.90123104-42.90123099v-521.86964171a42.99656726 42.99656726 0 0 0-42.90123104-42.90123101zM165.54872589 708.8099860899999a14.30040978 14.30040978 0 0 1-14.30041148-14.30040976v-521.86964171a14.30040978 14.30040978 0 0 1 14.30041148-14.30040978h692.90254822a14.30040978 14.30040978 0 0 1 14.30041148 14.30040978V694.50957633a14.30040978 14.30040978 0 0 1-14.30041148 14.30040976zM740.80656486 30.589192679999996H278.61730324a14.30040978 14.30040978 0 1 0 0 28.60082123H740.80656486a14.30040978 14.30040978 0 0 0 0-28.60082123zM263.45886884 315.64403914a14.30040978 14.30040978 0 0 0-14.30041144 14.30040977V537.3003982800001a14.30040978 14.30040978 0 0 0 28.60082123 0v-207.35594937a14.30040978 14.30040978 0 0 0-14.30040979-14.30040977zM435.06379293 314.88135077000004c-58.7270192 0-106.49038917 53.29286271-106.49038916 118.69340471s47.66803373 118.78874263 106.49038916 118.78874261c43.09190353 0 81.70301145-28.60082124 98.29148632-73.12276524a14.30040978 14.30040978 0 1 0-26.78943574-9.53360707c-12.39368971 33.08161518-40.42249341 54.53223068-71.50205058 54.53223235-42.99656726 0-77.88956793-40.42249341-77.8895696-90.18792137s34.89300067-90.09258514 77.8895696-90.09258517c32.03291971 0 61.30109306 23.35733726 72.74142023 58.1550017a14.30040978 14.30040978 0 0 0 27.17077909-8.96159122c-15.25377065-47.28669036-55.48559156-78.27091296-99.91219932-78.2709113zM692.28050655 316.6927346c-59.20369881 0-107.25307755 52.43483808-107.25307757 116.88202088s47.66803373 116.88202087 107.25307757 116.88202087S799.53358409 498.40328326 799.53358409 433.57475548s-48.14471499-116.88202087-107.25307754-116.88202088z m0 205.1632205c-43.37791061 0-78.65225632-39.56446879-78.65225632-88.28119962s35.27434569-88.28119964 78.65225632-88.28119964 78.65225632 39.65980505 78.65225628 88.28119964-35.27434569 88.28119964-78.65225628 88.28119962z"  horiz-adv-x="1024" />

    
    <glyph glyph-name="weibiaoti--35" unicode="&#59169;" d="M827.24460206-28.563660020000043a14.7453122 14.7453122 0 0 0-7.11842786 1.72876052l-83.48897205 43.93086056-83.48897383-43.93086056a15.25377043 15.25377043 0 0 0-16.06730647 1.11861027 15.55884645 15.55884645 0 0 0-6.10150783 14.9486944l15.96561448 93.04800448-67.52336114 65.79459884a15.25377043 15.25377043 0 0 0 8.44042036 26.03310156l93.3530787 13.5250117 41.6936418 84.60758231a15.45715443 15.45715443 0 0 0 13.72839393 8.54211238 15.25377043 15.25377043 0 0 0 13.62670194-8.54211238l41.795332-84.60758231 93.35307869-13.5250117a15.25377043 15.25377043 0 0 0 8.44042037-26.03310156l-67.52335935-65.79459884 15.96561268-93.04800448a15.55884645 15.55884645 0 0 0-6.10150781-14.9486944 15.15207841 15.15207841 0 0 0-8.94887861-2.84737079z m-90.60739991 78.09930646a15.96561447 15.96561447 0 0 0 7.11842606-1.7287605l63.25230408-33.25321966-12.10132541 70.47242214a15.35546246 15.35546246 0 0 0 4.37274729 13.42331793l50.84590442 49.93067637-71.1842662 10.16918087a15.25377043 15.25377043 0 0 0-11.49117337 8.33872837L736.73889238 231.46229030999996l-31.62615115-64.06583832a15.25377043 15.25377043 0 0 0-11.49117337-8.33872837l-71.18426621-10.16918088 50.84590444-49.93067816a15.35546246 15.35546246 0 0 0 4.37274729-13.42331791l-12.10132543-70.47242214 63.25230409 33.25322143a15.96561447 15.96561447 0 0 0 7.93196034 1.22030048zM486.57704867 128.85525698000004h-142.36853058a15.25377043 15.25377043 0 0 0 0 30.50754087h142.36853058a15.25377043 15.25377043 0 0 0 0-30.50754087zM664.53770969 609.65411862H334.44610523a15.25377043 15.25377043 0 0 0 0 30.50754266H664.53770969a15.25377043 15.25377043 0 1 0 0-30.50754266zM550.337811-28.563660020000043H157.5023607a32.03291916 32.03291916 0 0 0-31.93122715 32.03291912V764.5307409a32.03291916 32.03291916 0 0 0 32.03291914 32.03291912h691.50428765a32.03291916 32.03291916 0 0 0 32.03291915-32.03291912v-510.08610204a15.25377043 15.25377043 0 1 0-30.50754266 0V764.5307409a1.52537651 1.52537651 0 0 1-1.52537649 1.52537827h-691.50428765a1.52537651 1.52537651 0 0 1-1.5253765-1.52537827v-761.0614818a1.52537651 1.52537651 0 0 1 1.5253765-1.52537827h392.73375831a15.25377043 15.25377043 0 0 0 0-30.50754085zM341.97129934 377.28834015999996l11.18609915 12.71147565a58.16771273 58.16771273 0 0 1 40.67672173-18.40621546c19.42313551 0 31.1176929 10.1691809 31.1176929 24.30434105s-10.1691809 20.33836178-24.60941703 26.13479357l-21.35528006 9.35564662c-13.72839391 5.79643359-30.50754266 16.27068869-30.50754086 37.93104477s19.72820976 39.25303725 46.57484733 39.25303723a61.01508353 61.01508353 0 0 0 43.62578455-18.30452522l-10.16918087-11.89794139a47.89684162 47.89684162 0 0 1-33.65998767 13.93177792c-16.67745674 0-27.66017187-8.54211237-27.66017186-21.86373827s12.91485967-19.72820976 24.40603484-24.60941886l21.25358622-9.05057061c17.08422295-7.42350211 30.50754266-17.49099098 30.50754265-39.55811147s-19.32144351-41.89702402-50.23575238-41.89702581a71.18426438 71.18426438 0 0 0-51.15097864 21.96543028zM459.42533507 377.28834015999996l11.08440715 12.71147565a58.16771273 58.16771273 0 0 1 40.67672354-18.40621546c19.42313551 0 31.1176929 10.1691809 31.11769286 24.30434105s-10.1691809 20.33836178-24.60941705 26.13479357l-21.35528001 9.35564662c-13.72839391 5.79643359-30.50754266 16.27068869-30.50754266 37.93104477s19.72820976 39.25303725 46.57484911 39.25303723a61.01508353 61.01508353 0 0 0 43.62578457-18.30452522l-10.16918092-11.89794139a48.30360786 48.30360786 0 0 1-33.76167964 13.93177792c-16.67745674 0-27.66017187-8.54211237-27.66017188-21.86373827s12.91485967-19.72820976 24.40603304-24.60941886l21.25358806-9.05057061c17.08422295-7.42350211 30.50754266-17.49099098 30.50754263-39.55811147s-19.32144351-41.89702402-50.23575239-41.89702581a70.47242217 70.47242217 0 0 0-50.94759641 21.96543028zM590.50607449 506.03016881h18.71129325v-132.19934971h64.57429657v-15.86392245h-83.28558982z"  horiz-adv-x="1024" />

    
    <glyph glyph-name="weibiaoti--36" unicode="&#59170;" d="M697.1009365 4.145350010000016H325.82653219a25.02571827 25.02571827 0 0 0-25.0257167 25.02571827v211.37793998a13.40663417 13.40663417 0 0 0 26.81326834 0v-209.59038833h367.60992331v209.59038833a13.40663417 13.40663417 0 0 0 26.81326989 0v-211.37793998a24.93634053 24.93634053 0 0 0-24.93634053-25.02571827zM314.20744966 515.65315216a13.40663417 13.40663417 0 0 0-13.40663417 13.40663574V738.82893172a25.02571827 25.02571827 0 0 0 25.0257167 25.02571827h371.27440431a25.02571827 25.02571827 0 0 0 24.93634053-25.02571827v-207.53470504a13.40663417 13.40663417 0 0 0-26.81326989 0v205.56839791H327.61408383v-207.80283669a13.40663417 13.40663417 0 0 0-13.40663417-13.40663574zM511.46373514 154.03152640999997a13.40663417 13.40663417 0 0 0-13.40663576 13.40663416v437.05629153a13.40663417 13.40663417 0 1 0 26.81326991 0v-437.05629153a13.40663417 13.40663417 0 0 0-13.40663415-13.40663416zM873.97913671 372.55967137000005H593.60171721a13.40663417 13.40663417 0 0 0 0 26.81326992h280.3774195a13.40663417 13.40663417 0 0 0 0-26.81326992zM436.02906937 372.55967137000005H147.87580226a13.40663417 13.40663417 0 1 0 0 26.81326992H436.02906937a13.40663417 13.40663417 0 0 0 0-26.81326992zM243.86730561 271.02675763a13.31725642 13.31725642 0 0 0-9.4740215 3.93261424L133.5753907 376.49228404999997a13.31725642 13.31725642 0 0 0 0 19.03742231l100.72851567 97.68967726A13.40663417 13.40663417 0 1 0 252.80506226 474.00320739L162.08683451 385.78755164 252.80506226 293.81803711a13.40663417 13.40663417 0 0 0 0-18.94804298 13.58538964 13.58538964 0 0 0-8.93775665-3.8432365zM780.13269439 271.02675763a13.58538964 13.58538964 0 0 0-9.47402308 3.8432365 13.40663417 13.40663417 0 0 0 0 18.94804298l91.25449418 91.96951453L771.19493774 474.00320739a13.40663417 13.40663417 0 1 0 18.67991138 19.21617623l100.54976018-97.68967726a13.31725642 13.31725642 0 0 0 0-19.03742231l-100.54976018-101.53291218a13.49601193 13.49601193 0 0 0-9.74215473-3.93261424z"  horiz-adv-x="1024" />

    
    <glyph glyph-name="weibiaoti--37" unicode="&#59171;" d="M698.17346781 4.145350010000016H326.80968575a24.93634053 24.93634053 0 0 0-24.93634053 25.02571827v211.37793998a13.40663417 13.40663417 0 0 0 26.81326992 0v-209.59038833h367.60992329v209.59038833a13.40663417 13.40663417 0 0 0 26.8132699 0v-211.37793998a24.93634053 24.93634053 0 0 0-24.93634052-25.02571827zM315.36935714 515.65315216a13.40663417 13.40663417 0 0 0-13.40663417 13.40663574V738.82893172a25.02571827 25.02571827 0 0 0 24.93634053 25.02571827h371.36378047a25.02571827 25.02571827 0 0 0 24.93634054-25.02571827v-207.53470504a13.40663417 13.40663417 0 0 0-26.81326834 0v205.56839791H328.68661514v-207.80283669a13.40663417 13.40663417 0 0 0-13.317258-13.40663574zM512.44688711 154.03152640999997a13.40663417 13.40663417 0 0 0-13.40663416 13.40663416v437.05629153a13.40663417 13.40663417 0 0 0 26.81326992 0v-437.05629153a13.40663417 13.40663417 0 0 0-13.40663576-13.40663416zM875.05166801 372.55967137000005h-248.02274234a13.40663417 13.40663417 0 0 0 0 26.81326992h248.02274234a13.40663417 13.40663417 0 0 0 0-26.81326992zM400.27804438 372.55967137000005H148.94833199a13.40663417 13.40663417 0 1 0 0 26.81326992H400.27804438a13.40663417 13.40663417 0 0 0 0-26.81326992zM725.70175648 271.02675763a13.67476739 13.67476739 0 0 0-9.56339922 3.93261424l-100.5497602 101.53291218a13.13850252 13.13850252 0 0 0-3.84323495 9.56339925 13.49601193 13.49601193 0 0 0 4.02199042 9.47402306l100.5497602 97.68967726a13.58538964 13.58538964 0 0 0 19.03742074 0 13.40663417 13.40663417 0 0 0 0-18.94804301l-91.16511487-88.48378897L735.4439112 293.81803711a13.31725642 13.31725642 0 0 0 0-18.94804298 13.22788025 13.22788025 0 0 0-9.74215472-3.8432365zM299.63890646 271.02675763a13.22788025 13.22788025 0 0 0-8.93775664 3.8432365 13.40663417 13.40663417 0 0 0 0 18.94804298L381.15124592 385.78755164 290.34364044 474.00320739a13.31725642 13.31725642 0 0 0 0 18.94804458 13.49601193 13.49601193 0 0 0 18.94804301 0l100.28162698-97.42154561a13.31725642 13.31725642 0 0 0 0-19.03742231L309.20230571 274.95937187000004a13.49601193 13.49601193 0 0 0-9.56339925-3.93261424z"  horiz-adv-x="1024" />

    
    <glyph glyph-name="icon2" unicode="&#59164;" d="M813.431725 507.523291l0 95.606475c0 153.48058-131.225717 277.965779-293.173133 277.965779-161.944346 0-293.170063-124.484176-293.170063-277.965779l0-94.015234c-71.494311-4.897543-127.878482-61.447491-127.878482-130.494053l0-359.726921c0-72.216765 61.756529-130.796952 137.960095-130.796952l552.494273 0c76.203566 0 137.960095 58.580187 137.960095 130.796952L927.624511 378.620479C927.624511 443.19724 878.305245 496.840998 813.431725 507.523291zM581.427744 172.311717l0-121.141034L477.951021 51.170682l0 119.194706c-34.651194 17.092283-58.304917 51.442626-58.304917 91.036389 0 56.644091 48.39522 102.558817 108.159372 102.558817 59.765175 0 108.162442-45.913703 108.162442-102.558817C635.967918 223.260086 614.016976 189.980121 581.427744 172.311717zM720.466404 509.464503 319.028499 509.464503l0 76.632331c0 105.090477 89.839121 190.349279 200.74607 190.349279 110.797455 0 200.690812-85.258803 200.690812-190.349279L720.46538 509.464503z"  horiz-adv-x="1024" />

    
    <glyph glyph-name="ai-user" unicode="&#59165;" d="M983.605 76.362c3.383-10.148 5.97-23.282 7.562-39.201 1.592-15.919 2.388-3.184 2.388-19.103 0-15.919-1.194-31.042-3.383-45.37-2.388-14.327-5.97-25.073-10.546-32.435-3.383-4.776-13.133-9.75-29.052-15.322-15.919-5.572-182.075-52.931-415.689-52.931-213.516 0-397.382 34.624-426.634 41.191-29.251 6.567-46.763 12.138-52.931 16.715-7.562 5.572-13.133 22.088-16.715 49.747-3.582 27.859-2.189 34.823 4.577 78.203 4.179 25.073 14.327 44.176 30.445 56.911 16.317 12.934 35.619 23.083 57.508 30.445 22.088 7.562 124.368 42.783 147.849 48.951 23.481 6.169 43.977 14.924 61.488 26.466 14.327 8.756 25.272 17.312 33.032 25.471 7.761 8.159 13.332 16.317 16.317 24.476 2.985 8.159 4.577 16.516 4.577 25.471 0 8.756-0.398 18.307-0.995 28.654-1.393 16.317-6.567 28.853-15.72 37.609-9.154 8.756-19.302 17.909-31.042 27.461-5.572 4.776-10.148 11.342-14.327 19.899-4.179 8.557-7.761 17.113-11.143 25.869-3.383 10.148-6.766 20.695-10.148 31.44-4.776 1.393-9.551 3.582-14.327 7.164-4.179 3.383-8.557 8.159-13.332 14.327-4.776 6.169-8.756 14.924-12.337 26.466-3.383 11.342-4.577 21.889-3.383 31.042 0.995 9.154 2.786 17.113 5.572 23.879 2.587 7.562 6.766 14.526 12.337 21.491-0.597 25.67 0.597 51.538 4.179 77.407 2.587 21.69 7.562 44.773 14.725 69.248s17.511 46.564 31.042 66.065c12.934 18.307 27.262 33.43 43.181 45.37 15.919 11.939 32.037 21.292 48.354 28.058 16.317 6.766 32.634 11.342 49.349 14.327 16.516 2.587 32.634 4.179 48.354 4.179 19.501 0 38.604-2.388 56.513-7.164 17.909-4.776 34.624-10.745 50.344-18.307 15.521-7.562 29.649-15.72 41.589-24.874 12.337-9.154 22.088-18.506 29.649-28.058 16.914-21.69 29.649-45.569 38.206-71.636 8.557-26.068 14.526-50.543 17.71-73.626 4.179-27.063 5.771-54.324 5.174-81.387 4.776-2.587 8.557-6.766 11.143-12.337 2.587-4.776 4.975-10.745 6.567-18.307 1.592-7.562 1.791-16.516 0.398-27.461-1.99-14.327-5.373-25.471-9.551-34.027-4.577-8.557-9.353-15.123-14.725-19.899-6.169-5.572-12.536-9.154-19.302-11.143-2.587-10.745-5.771-21.491-9.154-31.44-3.383-8.756-7.363-17.511-11.541-25.869-4.577-8.557-9.353-15.123-14.725-19.899-6.169-5.572-11.74-9.949-17.312-13.73-5.572-3.582-10.148-7.562-14.327-11.541-4.179-4.179-7.562-8.955-10.148-14.725-2.587-5.771-4.776-12.735-6.169-20.894-1.99-10.148-2.587-20.496-1.99-31.042 0.597-10.347 3.383-21.093 8.159-31.44 4.776-10.347 12.536-20.496 23.481-30.047 10.745-9.551 25.471-17.909 43.778-25.471 16.914-6.766 35.619-12.735 55.518-17.71 20.098-5.174 100.689-39.798 119.195-46.962 18.506-7.164 35.221-16.118 49.747-26.864 14.128-11.939 24.476-26.068 30.644-43.778v0zM531.501-61.935c3.383 0 8.557 2.189 15.72 6.567 7.164 4.577 14.128 9.551 20.894 15.72 6.766 6.169 12.735 12.337 17.71 18.307 5.174 6.169 7.562 10.745 7.562 14.327 0 4.179-0.995 11.143-2.985 21.491-1.99 10.148-4.577 21.491-7.164 33.43-2.587 12.337-5.572 24.277-8.159 36.216-2.587 11.939-5.174 21.491-7.164 29.052 6.766 5.572 12.536 11.342 17.312 17.71 4.776 6.567 7.164 13.133 7.164 19.899 0 5.572-1.791 10.944-5.572 16.715-3.582 5.771-7.96 10.546-12.735 14.725-5.572 4.776-11.143 9.551-17.312 14.327h-50.742c-6.766-4.776-12.536-9.551-17.312-14.327-4.179-4.179-7.761-8.756-11.143-14.327-3.383-5.572-5.174-10.745-5.174-16.317 0-4.179 2.388-9.551 7.562-16.317 5.174-6.766 11.342-13.332 18.705-19.302-1.99-6.169-4.776-14.924-8.159-26.466-3.383-11.342-6.567-23.481-9.551-36.216-2.985-12.536-5.771-24.476-8.159-35.619-2.388-11.143-3.383-19.302-3.383-24.874 0-3.383 2.388-8.159 7.562-14.327 5.174-6.169 11.143-12.337 18.307-18.307 7.164-6.169 14.128-11.342 20.894-15.72 6.965-3.98 12.138-6.368 15.322-6.368v0z"  horiz-adv-x="1024" />

    
    <glyph glyph-name="koukou" unicode="&#59158;" d="M116.435 302.286c-33.54-78.964-38.985-154.297-12.059-168.37 18.572-9.696 47.686 12.382 74.936 52.909 10.791-44.157 37.493-84.137 75.633-116.21-40.004-14.768-66.135-38.886-66.135-66.232 0-44.954 70.709-81.302 157.978-81.302 78.716 0 143.907 29.538 155.94 68.371 3.232 0.049 15.663 0.049 18.796 0 12.083-38.784 77.324-68.371 155.989-68.371 87.267 0 157.978 36.398 157.978 81.302 0 27.297-26.105 51.464-66.135 66.232 38.089 32.123 64.889 72.053 75.631 116.21 27.251-40.527 56.29-62.605 74.887-52.909 26.95 14.073 21.631 89.456-12.032 168.37-26.355 62.058-62.11 107.754-89.457 117.848 0.398 3.929 0.596 7.958 0.596 11.935 0 23.968-6.661 46.146-18.049 64.196 0.199 1.393 0.199 2.834 0.199 4.227 0 11.038-2.636 21.381-7.114 30.332-6.909 161.309-111.93 289.402-281.866 289.402-170.036 0-275.106-128.093-281.943-289.402-4.525-9.001-7.135-19.343-7.135-30.332 0-1.393 0.099-2.835 0.15-4.227-11.288-18.05-17.951-40.178-17.951-64.196 0-3.978 0.15-7.955 0.498-11.935-27.151-10.094-63.028-55.841-89.333-117.848z"  horiz-adv-x="1024" />

    
    <glyph glyph-name="shouji2" unicode="&#59159;" d="M776.676-114.08h-479.92c-28.332 0-51.33 22.999-51.33 51.33V828.37c0 28.332 22.999 51.33 51.33 51.33h479.92c28.332 0 51.33-22.999 51.33-51.33v-891.12c0-28.332-22.999-51.33-51.33-51.33z m-240.1 51.329c19.073 0 34.221 15.426 34.221 34.221s-15.426 34.221-34.221 34.221-34.221-15.426-34.221-34.221 15.426-34.221 34.221-34.221z m240.1 839.791h-479.92v-719.742h479.641V777.04h0.279z"  horiz-adv-x="1024" />

    
    <glyph glyph-name="chengyuan" unicode="&#59160;" d="M831.705 184.694c0-36.33-11.053-65.012-33.15-86.058-22.103-21.04-51.473-31.562-88.103-31.562H313.544c-36.635 0-66.005 10.523-88.101 31.562-22.104 21.046-33.153 49.726-33.153 86.058 0 16.043 0.525 31.711 1.59 47.002 1.057 15.284 3.178 31.79 6.357 49.5 3.179 17.712 7.188 34.132 12.035 49.274 4.839 15.136 11.352 29.895 19.527 44.277 8.174 14.376 17.555 26.638 28.157 36.784 10.594 10.14 23.536 18.236 38.828 24.296 15.284 6.053 32.164 9.083 50.635 9.083 2.725 0 9.083-3.257 19.074-9.763 9.99-6.514 21.266-13.78 33.832-21.799 12.56-8.025 28.909-15.29 49.046-21.798 20.13-6.514 40.34-9.764 60.626-9.764 20.28 0 40.49 3.25 60.628 9.764 20.13 6.507 36.479 13.773 49.046 21.798a4269.574 4269.574 0 0 1 33.832 21.799c9.99 6.507 16.349 9.763 19.075 9.763 18.463 0 35.343-3.03 50.634-9.083 15.285-6.06 28.228-14.156 38.828-24.296 10.595-10.147 19.982-22.408 28.157-36.784 8.174-14.383 14.681-29.142 19.526-44.277 4.84-15.142 8.856-31.562 12.035-49.273 3.18-17.71 5.295-34.217 6.358-49.5 1.058-15.293 1.59-30.96 1.59-47.003zM635.296 713.528c34.06-34.06 51.09-75.159 51.09-123.296 0-48.138-17.03-89.236-51.09-123.296s-75.159-51.09-123.297-51.09c-48.137 0-89.235 17.03-123.296 51.09-34.06 34.06-51.09 75.158-51.09 123.296 0 48.137 17.03 89.236 51.09 123.296s75.159 51.09 123.296 51.09 89.236-17.03 123.297-51.09z"  horiz-adv-x="1024" />

    
    <glyph glyph-name="xinfeng" unicode="&#59161;" d="M912 626.9c0-23.5-7.3-46-21.9-67.4-14.6-21.4-32.8-39.7-54.5-54.9-111.9-77.7-181.5-126-208.9-145.1-3-2.1-9.3-6.7-19-13.6-9.7-7-17.7-12.7-24.1-17s-14.2-9.1-23.2-14.6c-9.1-5.4-17.7-9.4-25.6-12-8.1-2.7-15.5-4-22.3-4h-1c-6.9 0-14.3 1.3-22.3 4-8.1 2.7-16.6 6.7-25.6 12-9.1 5.4-16.8 10.2-23.2 14.6-6.4 4.3-14.5 10-24.1 17-9.7 6.9-16 11.5-19 13.6-27 19.1-66.1 46.2-117 81.5-50.9 35.3-81.4 56.4-91.5 63.7-18.5 12.5-35.9 29.7-52.2 51.5-16.4 21.7-24.6 42.1-24.6 60.8 0 23.2 6.2 42.5 18.5 58s30 23.2 52.9 23.2h657.2c19.3 0 36.1-7 50.2-20.9 14.2-14 21.2-30.8 21.2-50.4z m0-131.3v-354.5c0-19.6-7-36.4-20.9-50.4-14-14-30.8-20.9-50.4-20.9H183.5c-19.6 0-36.4 7-50.4 20.9-14.1 13.9-21 30.8-21 50.4V495.6c13.1-14.6 28.2-27.5 45.1-38.9 107.7-73.2 181.7-124.6 221.9-154 17-12.5 30.7-22.3 41.3-29.2 10.5-7 24.6-14.2 42.2-21.4 17.6-7.3 33.9-10.9 49.1-10.9h1c15.2 0 31.5 3.7 49.1 10.9 17.6 7.3 31.6 14.5 42.2 21.4 10.5 6.9 24.3 16.7 41.3 29.2 50.6 36.6 124.7 88 222.3 154 16.7 11.7 31.6 24.6 44.4 38.9z"  horiz-adv-x="1024" />

    
    <glyph glyph-name="dianhua" unicode="&#59163;" d="M443.2 315.2c-88.7 88.6-173.5 191.3-132.8 231.9 58.1 58.1 108.7 93.9 5.8 222-103 128.2-171.7 29.8-228-26.5-64.9-65-3.4-307.1 235.9-546.5 239.3-239.3 481.5-300.9 546.5-235.9 56.3 56.3 154.7 124.9 26.6 227.9s-163.9 52.4-222-5.8c-40.7-40.5-143.3 44.3-232 132.9z"  horiz-adv-x="1024" />

    
    <glyph glyph-name="xiala-" unicode="&#59157;" d="M503.074 322.551a51.686 51.686 0 0 1 73.318 0L946.1 693.043a52.224 52.224 0 0 1 0 73.66 51.67 51.67 0 0 1-73.318 0L539.716 432.93 206.652 766.703a51.67 51.67 0 0 1-73.318 0 52.267 52.267 0 0 1 0-73.66l369.74-370.492z m369.707 122.871L539.716 111.659 206.652 445.423a51.67 51.67 0 0 1-73.318 0 52.25 52.25 0 0 1 0-73.643l369.732-370.492a51.703 51.703 0 0 1 73.318 0L946.125 371.78a52.258 52.258 0 0 1 0 73.643 51.703 51.703 0 0 1-73.344 0z"  horiz-adv-x="1079" />

    
    <glyph glyph-name="search" unicode="&#59156;" d="M1015.778-42.232L723.52 251.951c118.83 156.952 106.719 381.472-36.393 524.582-156.41 156.41-410.004 156.41-566.415 0-156.41-156.375-156.41-409.97 0-566.38 143.06-143.06 367.404-155.243 524.343-36.606l292.323-294.214c9.605-9.604 25.222-9.604 34.825 0l43.576 43.576c9.638 9.64 9.638 25.254 0 34.86zM194.915 282.187c-114.862 114.86-114.862 301.082 0 415.909 114.863 114.862 301.046 114.862 415.91 0 114.863-114.827 114.863-301.048 0-415.91-114.864-114.862-301.047-114.862-415.91 0z"  horiz-adv-x="1024" />

    
    <glyph glyph-name="fawenjian" unicode="&#59154;" d="M553.9 132.2l-90.1 27.7c-2.7 0.9-5.7 0.4-8-1.4-2.3-1.7-3.7-4.4-3.7-7.3v-170.1c0-4 2.7-7.6 6.5-8.7 0.8-0.2 1.7-0.4 2.5-0.4 3 0 5.9 1.5 7.6 4.2l90.1 142.4c1.5 2.4 1.8 5.3 0.9 8-1 2.7-3.1 4.7-5.8 5.6M956.6 791.6c-2.8 2.2-6.6 2.6-9.7 1l-878-449c-3.3-1.7-5.2-5.1-4.9-8.8 0.3-3.7 2.8-6.8 6.3-7.9l293.9-93.4c3.1-1 6.4-0.2 8.8 1.9l406.5 366.3-324.6-384.2c-2-2.3-2.6-5.5-1.8-8.4 0.9-2.9 3.1-5.2 6-6.1l326.1-99.3c0.8-0.3 1.7-0.4 2.6-0.4 1.5 0 3.1 0.4 4.5 1.2 2.2 1.2 3.7 3.3 4.3 5.7l163 672.2c1 3.4-0.3 7-3 9.2"  horiz-adv-x="1024" />

    
    <glyph glyph-name="QCC-" unicode="&#59155;" d="M924.28 787l-2.22 8.69-8.74 2.27c-148.58 39.29-378 0-573.47-228.32-91.71 2.12-166-30.66-240.28-104.94l-13.09-13.11 180.24-121.26c-24-43.63-9.85-108.12 36.05-154s110.3-60.1 152.87-37.12l121.27-182.5L590-30.2c76.46 76.46 109.24 150.75 106 243.62C923.16 410.13 963.62 638.35 924.28 787zM655.45 433c-54.59 2.17-97.22 49.13-95 103.78s49.19 97.26 103.79 95.09 97.16-49.19 95-103.79S710 430.83 655.45 433zM186.11 130.8c-29.29-29.29-47.36-119.49-47.36-119.49s86.86 14.69 119.53 47.32c24.8 24.8 29.28 60.87 9 81.18s-56.37 15.79-81.17-9.01z"  horiz-adv-x="1024" />

    
    <glyph glyph-name="mingcheng" unicode="&#59152;" d="M512 678.4c-51.2 0-87.466667-12.8-113.066667-40.533333-38.4-42.666667-36.266667-108.8-34.133333-136.533334 2.133333-29.866667 23.466667-87.466667 59.733333-115.2 6.4-4.266667 10.666667-12.8 10.666667-21.333333s-2.133333-14.933333-8.533333-21.333333L253.866667 192v-110.933333H768V192l-170.666667 151.466667c-6.4 6.4-8.533333 12.8-8.533333 21.333333s4.266667 14.933333 10.666667 21.333333c38.4 29.866667 57.6 78.933333 61.866666 117.333334 2.133333 14.933333 8.533333 85.333333-32 132.266666-23.466667 27.733333-64 42.666667-117.333333 42.666667z m258.133333-650.666667H253.866667c-29.866667 0-55.466667 23.466667-55.466667 53.333334V192c0 14.933333 6.4 29.866667 19.2 40.533333l149.333333 132.266667c-36.266667 40.533333-53.333333 98.133333-57.6 130.133333-4.266667 34.133333-6.4 119.466667 46.933334 177.066667 34.133333 38.4 85.333333 57.6 153.6 57.6 70.4 0 123.733333-21.333333 160-61.866667 55.466667-61.866667 46.933333-149.333333 44.8-174.933333-6.4-51.2-27.733333-98.133333-59.733334-130.133333l149.333334-130.133334c10.666667-10.666667 19.2-25.6 19.2-40.533333v-110.933333c0-27.733333-23.466667-53.333333-53.333334-53.333334zM556.8 117.333333h-76.8v132.266667c0 21.333333 17.066667 38.4 38.4 38.4s38.4-17.066667 38.4-38.4v-132.266667z"  horiz-adv-x="1024" />

    
    <glyph glyph-name="fangda" unicode="&#59151;" d="M920.32-19.968a25.6 25.6 0 0 0-36.1984-36.1472l-179.6096 179.6096A382.5664 382.5664 0 0 0 480.2048 51.2a384 384 0 1 0 384 384 25.6 25.6 0 0 0-51.2 0 332.8 332.8 0 1 1-28.16-134.1952 25.6 25.6 0 1 0 46.848-20.6848 384.8192 384.8192 0 0 0-87.552-124.0576l176.128-176.1792zM454.6048 614.4a25.6 25.6 0 1 0 51.2 0v-153.6h153.6a25.6 25.6 0 0 0 0-51.2h-153.6v-153.6a25.6 25.6 0 0 0-51.2 0v153.6h-153.6a25.6 25.6 0 1 0 0 51.2h153.6v153.6z"  horiz-adv-x="1024" />

    
    <glyph glyph-name="weibiaoti--29" unicode="&#59148;" d="M512-105.64605001999996a48.10022385 48.10022385 0 0 0-23.69419081 6.30489182L105.23277177 121.63513890000002a47.38838159 47.38838159 0 0 0-23.69419081 40.67672174V604.5695290599999a47.69345761 47.69345761 0 0 0 23.5925006 40.67672354l382.97134363 221.99321359a47.28668959 47.28668959 0 0 0 47.3883816 0L918.76722823 646.3648611a47.69345761 47.69345761 0 0 0 23.7958828-40.67672174v-384.80179794a15.25377043 15.25377043 0 0 0-15.2537722-15.25377043 15.25377043 15.25377043 0 0 0-15.25377045 15.25377043v384.39502991a16.88084074 16.88084074 0 0 1-8.54211237 14.64362018L520.23703635 840.90128861a17.18591495 17.18591495 0 0 1-16.88084073 0L120.48654399 619.51822527a16.57576471 16.57576471 0 0 1-8.44042035-14.64362019v-442.15597641a16.88084074 16.88084074 0 0 1 8.44042035-14.64362018l383.07303563-220.9762971a16.88084074 16.88084074 0 0 1 16.98253275 0l376.7681438 217.82385028a15.25377043 15.25377043 0 0 0 15.25377044-26.43986957l-376.25968555-217.8238503a48.20191585 48.20191585 0 0 0-24.30434106-6.30489182zM512 379.22048468c-122.64031907 0-215.1798635 42.91394231-215.1798635 99.86135453s92.53954446 99.86135453 215.1798635 99.86135454 215.1798635-43.01563429 215.1798635-99.86135454-92.53954446-99.86135453-215.1798635-99.86135453z m0 169.21516641c-108.81023314 0-184.67232084-36.60905046-184.67232084-69.35381188S403.18976686 409.72802732 512 409.72802732s184.67232084 36.50735849 184.67232084 69.35381189-75.86208772 69.35381187-184.67232084 69.35381188zM512 288.51139276000004c-122.64031907 0-215.1798635 42.91394231-215.1798635 99.86135454a65.18444859 65.18444859 0 0 0 25.52464332 48.71037589 15.25377043 15.25377043 0 0 0 20.33836176-23.08404056 35.59213221 35.59213221 0 0 1-15.05038823-25.62633533c0-32.74476142 75.86208772-69.35381187 184.67232268-69.35381189s184.67232084 36.60905046 184.67232086 69.35381189a35.59213221 35.59213221 0 0 1-14.84700422 25.52464331 15.25377043 15.25377043 0 1 0 20.33836177 22.98234857 64.67598858 64.67598858 0 0 0 25.32125932-48.50699188c-0.61015024-56.94741223-93.1496947-99.86135453-215.79001376-99.86135454zM512 189.05680625000002c-122.64031907 0-215.1798635 42.91394231-215.1798635 99.86135454a65.08275659 65.08275659 0 0 0 25.52464332 48.71037588 15.15207841 15.15207841 0 0 0 21.55866403-1.52537829 15.35546246 15.35546246 0 0 0-1.52537828-21.55866226 35.59213221 35.59213221 0 0 1-15.05038641-25.62633533c0-32.74476142 75.86208772-69.35381187 184.67232084-69.35381188s184.67232084 36.60905046 184.67232084 69.35381188a35.59213221 35.59213221 0 0 1-14.84700418 25.52464331 15.25377043 15.25377043 0 0 0 20.33836176 23.08404056 65.08275659 65.08275659 0 0 0 25.32126111-48.60868387c-0.30507603-57.45587047-92.84462047-99.86135453-215.48493953-99.86135454z"  horiz-adv-x="1024" />

    
    <glyph glyph-name="weibiaoti--30" unicode="&#59149;" d="M512-119.78488617000005A503.78488617 503.78488617 0 1 0 1015.78488617 384 504.27855191 504.27855191 0 0 0 512-119.78488617000005z m0 970.54491682A466.76003065 466.76003065 0 1 1 978.76003065 384 467.37711065 467.37711065 0 0 1 512 850.76003065zM512 378.1994386c-148.83992501 0-261.14865804 52.08163191-261.14865804 121.1946987s112.30873307 121.19469872 261.14865804 121.19469873 261.14865804-52.20504831 261.14865804-121.19469873-112.30873307-121.19469872-261.14865804-121.1946987z m0 205.36453974c-132.05532294 0-224.12380035-44.42982834-224.12380035-84.16984104S379.94467706 415.22429627 512 415.22429627s224.12380035 44.30641197 224.12380035 84.16984103-92.06847742 84.16984101-224.12380035 84.16984104zM512 268.11219696c-148.83992501 0-261.14865804 52.08163191-261.14865804 121.19469873a78.98636178 78.98636178 0 0 0 30.97746341 59.11635545 18.51242775 18.51242775 0 0 0 24.68323846-28.0154756 43.19566623 43.19566623 0 0 1-18.2655971-31.10087985c0-39.74001267 92.06847742-84.16984101 224.12380258-84.16984103s224.12380035 44.42982834 224.12380036 84.16984103a43.19566623 43.19566623 0 0 1-18.01876422 30.9774634 18.51242775 18.51242775 0 1 0 24.68323845 27.89205919 78.49269606 78.49269606 0 0 0 30.73063059-58.86952259c-0.74049641-69.11306682-113.04922948-121.19469872-261.88915449-121.19469873zM512 147.41116396999996c-148.83992501 0-261.14865804 52.20504831-261.14865804 121.19469873a78.98636178 78.98636178 0 0 0 30.97746341 59.11635543 18.51242775 18.51242775 0 1 0 24.68323846-28.01547558 43.19566623 43.19566623 0 0 1-18.2655971-31.10087985c0-39.74001267 92.06847742-84.16984101 224.12380258-84.16984104s224.12380035 44.42982834 224.12380036 84.16984104a42.94883335 42.94883335 0 0 1-18.01876422 30.9774634 18.51242775 18.51242775 0 0 0 24.68323845 28.0154756 78.98636178 78.98636178 0 0 0 30.73063059-58.992939c-0.74049641-68.98965038-113.04922948-121.19469872-261.88915449-121.19469873z"  horiz-adv-x="1024" />

    
    <glyph glyph-name="weibiaoti--31" unicode="&#59150;" d="M964.05036327 5.767945080000004H59.83393382a42.00007278 42.00007278 0 0 0-41.88436988 42.00007281V720.23198211a42.00007278 42.00007278 0 0 0 41.88436988 42.00007281h904.21642945a42.1157757 42.1157757 0 0 0 42.00007279-42.00007281v-198.08298521l-19.66945706 3.35537812a120.21508337 120.21508337 0 0 1-19.09094055 1.73553949c-70.34722733 0-127.2729463-63.0579586-127.27294624-140.46305092s57.15712272-140.57875378 127.27294624-140.57875377a120.21508337 120.21508337 0 0 1 19.09094055 1.7355415l20.13226664 3.35537608v-203.52100951a42.1157757 42.1157757 0 0 0-42.46288237-42.00007281zM59.83393382 727.52125083a7.40497162 7.40497162 0 0 1-7.1735658-7.28926872v-672.46396422a7.40497162 7.40497162 0 0 1 7.1735658-7.28926872h904.21642945a7.40497162 7.40497162 0 0 1 7.28926871 7.28926872V211.60301066h-4.51240511c-89.43816989 0-161.98374836 78.67782015-161.98374833 175.28955584s72.77698425 175.17385499 161.98374833 175.17385497h4.51240511V720.23198211a7.40497162 7.40497162 0 0 1-7.28926871 7.28926872zM249.58632625 615.40535649m17.35540101 0l0 0q17.35540102 0 17.35540305-17.35540305l0-428.09990688q0-17.35540102-17.35540305-17.35540305l0 0q-17.35540102 0-17.35540101 17.35540305l0 428.09990688q0 17.35540102 17.35540101 17.35540305ZM965.09168737 385.0413241m-34.71080411 0a34.7108041 34.7108041 0 1 1 69.4216082 0 34.7108041 34.7108041 0 1 1-69.4216082 0Z"  horiz-adv-x="1024" />

    
    <glyph glyph-name="weibiaoti--19" unicode="&#59136;" d="M512 128.89426089999995a431.11691675 431.11691675 0 0 0-83.29231802 8.32186677 11.04672615 11.04672615 0 0 0 4.27140023 21.65158498A410.71729397 410.71729397 0 0 1 512 150.98771450000004c226.67882951 0 414.9886955 197.44182634 439.95429714 231.61303332a660.37331564 660.37331564 0 0 1-110.4672654 104.94390299 482.30008224 482.30008224 0 0 1-66.94316311 43.37681233L725.57004758 557.5072519299999a393.63169047 393.63169047 0 0 1-56.19101559 24.81831298L629.83174994 596.1707954a355.18908196 355.18908196 0 0 1-115.62240419 20.8414901H512c-225.86873595 0-409.53897676-200.16668571-438.99691489-234.48518267a763.6233865 763.6233865 0 0 1 151.85566826-132.56071901 11.04672615 11.04672615 0 0 0-12.29868837-18.3375657C121.09316889 292.75403884 48.03748347 371.25944172000004 48.03748347 382.82168277999995s66.2803595 81.00932858 137.05305419 133.07623263C261.01837244 572.08893102 379.43928098 639.1057390999999 512 639.1057390999999h2.28299074a376.69337696 376.69337696 0 0 0 122.76595376-22.0934536l39.39999207-13.8452305a413.7367333 413.7367333 0 0 0 59.3577436-26.14391886l49.41569097-26.58578879a504.90904946 504.90904946 0 0 0 70.03624611-45.4388694C917.04664157 456.83475047 975.96251653 395.3413061 975.96251653 382.82168277999995c0-14.72896907-67.82690166-83.88147662-137.20034417-134.18090614-75.41231986-54.64447474-193.17042612-119.74651574-326.76217236-119.74651574zM512.81009357 240.53984351999998A143.90202511 143.90202511 0 1 0 656.63847371 384a143.9756701 143.9756701 0 0 0-143.82838014-143.46015648z m0 265.63695294A121.80857152 121.80857152 0 1 1 634.5450201 384a121.95586149 121.95586149 0 0 1-121.73492653 122.17679646z"  horiz-adv-x="1024" />

    
    <glyph glyph-name="weibiaoti--20" unicode="&#59137;" d="M218.67258733 234.20638752000002a10.38392255 10.38392255 0 0 0-6.11252233 1.9147658C121.09316889 297.467309 48.03748347 375.97271187 48.03748347 387.53495294s66.2803595 81.00932858 137.05305419 133.07623263C261.01837244 576.80220118 379.43928098 643.81900926 512 643.81900926A433.9154198 433.9154198 0 0 0 600.3738131 634.39246896a11.04672615 11.04672615 0 1 0-4.49233648-21.57793869A411.1591639 411.1591639 0 0 1 512 621.72555567c-225.86873595 0-409.53897676-200.16668571-438.99691489-234.48518269a763.6233865 763.6233865 0 0 1 151.85566826-132.560719 11.04672615 11.04672615 0 0 0-6.18616604-20.25233149zM512 133.60753104000003a431.11691675 431.11691675 0 0 0-83.29231802 8.32186678 11.04672615 11.04672615 0 0 0 4.27140023 21.65158497A410.71729397 410.71729397 0 0 1 512 155.70098334c226.7524745 0 415.13598547 197.58911631 439.95429714 231.68667963-12.81420326 17.30653846-67.75325667 77.62166561-149.94090246 133.73903622a11.04672615 11.04672615 0 1 0 12.44597962 18.263922c86.67998098-58.91587498 161.50314223-137.93679276 161.50314223-151.85566825s-67.82690166-83.88147662-137.20034417-134.18090616C763.3498525 198.70957333 645.59174625 133.60753104000003 512 133.60753104000003z m442.53186655 249.95060033zM218.37800738 78.22660771000005a11.04672615 11.04672615 0 0 0-7.80635316 18.55850066l589.52697468 589.52697596a11.12037115 11.12037115 0 1 0 15.6863526-15.0971927l-589.15875103-589.52697596a11.19401613 11.19401613 0 0 0-8.24822309-3.46130796zM512.81009357 245.25311366000005a143.90202511 143.90202511 0 1 0 143.90202512 143.82838014 143.9756701 143.9756701 0 0 0-143.90202512-143.82838014z m0 265.63695295a121.80857152 121.80857152 0 1 1 121.80857152-121.80857281 121.95586149 121.95586149 0 0 1-121.80857152 121.80857281z"  horiz-adv-x="1024" />

    
    <glyph glyph-name="weibiaoti--21" unicode="&#59138;" d="M304.02957965 59.22427504999996a19.69099487 19.69099487 0 0 0-7.7926069 1.59203803 20.27753479 20.27753479 0 0 0-12.48492791 18.76928841v117.89459286H148.51261689a12.56871953 12.56871953 0 0 0-12.56871956 12.568721v485.9905068a12.56871953 12.56871953 0 0 0 12.56871956 12.56872101h726.97476622a12.56871953 12.56871953 0 0 0 12.56871956-12.56872101v-485.9905068a12.56871953 12.56871953 0 0 0-12.56871956-12.568721H452.75943361l-134.48530476-132.39051694a20.02615993 20.02615993 0 0 0-14.2445492-5.86540236z m-142.94824323 163.39335984h135.23942796a12.56871953 12.56871953 0 0 0 12.56871952-12.56871954V90.72986624999999l129.96056557 127.94956936a12.82009443 12.82009443 0 0 0 8.37914684 3.60303275h415.27050913v460.85306775H161.08133642zM733.62842961 523.68037553H287.94161751a12.56871953 12.56871953 0 0 0 0 25.13743907h445.6868121a12.56871953 12.56871953 0 0 0 0-25.13743907zM591.85326773 389.11127914H287.94161751a12.56871953 12.56871953 0 0 0 0 25.13744055h303.91165022a12.56871953 12.56871953 0 0 0 0-25.13744055z"  horiz-adv-x="1024" />

    
    <glyph glyph-name="weibiaoti--22" unicode="&#59139;" d="M556.8284354 10.792806889999952H470.10426723a12.56871953 12.56871953 0 0 0-11.22805784 6.78710882l-60.16227287 117.30805291-60.91639605 32.76246419L201.0498661 157.76303955000003a12.56871953 12.56871953 0 0 0-11.47942981 5.6978191L144.65820925 233.17535969000005a12.56871953 12.56871953 0 0 0 0.67033157 14.4959241l79.26672778 101.80663221v75.41232014l-79.09914453 97.53326642a12.48492789 12.48492789 0 0 0-0.7541232 14.74729897l45.58255861 69.79829122a12.31734611 12.31734611 0 0 0 11.14426478 5.69782055l101.13630061-5.02748897a12.56871953 12.56871953 0 0 0-1.25687298-25.13743906l-93.93023366 4.60853083-36.61687184-56.05649181 76.08265322-94.0140253a12.48492789 12.48492789 0 0 0 2.84890954-7.87639854v-83.79146698a12.31734611 12.31734611 0 0 0-2.68132776-7.70881527l-76.41781677-98.37118126 36.03033041-55.97270016 132.80947509 10.05497651a12.31734611 12.31734611 0 0 0 6.87090044-1.42445478l67.61971325-36.2817053a12.98767769 12.98767769 0 0 0 5.27886241-5.36265404l58.65402645-114.20776995h71.47412088l54.88341192 108.92890753a13.07146933 13.07146933 0 0 0 4.9436959 5.27886242l69.79829267 40.55506962a12.73630279 12.73630279 0 0 0 7.20606549 1.67582966l130.96606218-9.63601835 36.44928857 58.65402646-71.89307905 97.86843292a12.14976286 12.14976286 0 0 0-2.42995137 7.37364874v81.02634909a12.40113773 12.40113773 0 0 0 2.51374301 7.54123202l71.64170415 95.52227169-33.51658592 52.62104087-131.38502032-8.37914539a13.32284274 13.32284274 0 0 0-7.70881528 2.01099471l-74.74198857 48.43146817a13.07146933 13.07146933 0 0 0-4.27336431 4.77611263l-53.29137242 101.72284056h-69.37933455L439.18521598 652.1326932100001a12.56871953 12.56871953 0 1 0-22.45611426 11.31184803l43.40398064 86.80795978a12.65251118 12.65251118 0 0 0 11.31184802 6.95469209h84.71317199a12.65251118 12.65251118 0 0 0 11.14426623-6.70331718l55.38615877-105.99620488 68.54141969-44.40947874 134.65288803 8.96568824a12.82009443 12.82009443 0 0 0 11.47943129-5.78161218l41.89573275-66.19525847a12.65251118 12.65251118 0 0 0-0.58653995-14.32834082l-74.23924026-99.12530592v-72.14445245l74.40682352-101.38767405a12.48492789 12.48492789 0 0 0 0.58653995-14.0769674l-44.82843541-72.56341061a12.56871953 12.56871953 0 0 0-11.64701308-5.94919399L687.96208084 167.14768449999997l-63.17876713-36.70066347-56.7268219-112.7833137a12.56871953 12.56871953 0 0 0-11.22805641-6.87090044zM515.51924111 245.74407923a139.68037553 139.68037553 0 1 0 139.68037554 139.68037555 139.76416717 139.76416717 0 0 0-139.68037554-139.68037555z m0 254.22331053a114.542935 114.542935 0 1 1 114.54293501-114.54293498 114.62672662 114.62672662 0 0 1-114.54293501 114.54293498z"  horiz-adv-x="1024" />

    
    <glyph glyph-name="weibiaoti--23" unicode="&#59140;" d="M512 122.87450665999995a14.30040978 14.30040978 0 0 0-14.30040978 14.30041143V572.28873689a14.30040978 14.30040978 0 0 0 28.60081956 0v-435.1138188a14.30040978 14.30040978 0 0 0-14.30040978-14.30041143zM756.06033719 377.13580303000003a14.39574606 14.39574606 0 0 0-10.39163169 4.48079562L512 627.77432844 278.3312945 381.61659865a14.30040978 14.30040978 0 1 0-20.78326174 19.73456629l244.06033554 257.40738608a14.39574606 14.39574606 0 0 0 10.3916317 4.09945059 14.30040978 14.30040978 0 0 0 10.3916317-4.48079558l244.06033554-257.40738612a14.30040978 14.30040978 0 0 0-10.39163005-24.21536189zM870.46361881 12.189330609999956H153.53638119a14.30040978 14.30040978 0 0 0-14.30041145 14.30041145v715.02051588a14.30040978 14.30040978 0 0 0 14.30041145 14.30041145h716.92723762a14.30040978 14.30040978 0 0 0 14.30041145-14.30041145v-488.40667984a14.30040978 14.30040978 0 0 0-28.60082125 0V727.20984816H167.83679099v-686.41969632h688.32641802v87.32783878a14.30040978 14.30040978 0 0 0 28.60082125 0v-101.62824856a14.30040978 14.30040978 0 0 0-14.30041145-14.30041145z"  horiz-adv-x="1024" />

    
    <glyph glyph-name="weibiaoti--24" unicode="&#59142;" d="M735.4439112 1.9109112500000265a13.31725642 13.31725642 0 0 0-7.50771439 2.32381649l-198.68632612 134.51323511-101.62229151-101.62229149a13.40663417 13.40663417 0 0 0-14.56854321-2.94945911 13.49601193 13.49601193 0 0 0-8.31211403 12.4234806V209.71374950999996a13.22788025 13.22788025 0 0 0 3.48572553 8.93775664l261.42937652 286.00820607a13.40663417 13.40663417 0 1 0 19.84181882-17.87551324L431.56019185 204.52985006999995v-125.12858976l86.60685958 86.60685957a13.40663417 13.40663417 0 0 0 16.98173746 1.60879618L726.50615456 37.84069170999999l134.06634799 690.88857434-688.20724846-337.93657044 171.60492459-121.73224355a13.40663417 13.40663417 0 0 0-15.55169677-21.89750367L137.77613659 382.03369286a13.31725642 13.31725642 0 0 0-5.63078658 11.97659508 13.58538964 13.58538964 0 0 0 7.50771594 10.99343992l732.89603006 359.74469793a13.40663417 13.40663417 0 0 0 19.03742077-14.30041155l-143.00410306-737.36490759a13.40663417 13.40663417 0 0 0-8.04398081-9.9209102 14.30040998 14.30040998 0 0 0-5.09452171-1.2512852z"  horiz-adv-x="1024" />

    
    <glyph glyph-name="weibiaoti--25" unicode="&#59143;" d="M828.8434664 13.08310664999999H156.81355889a13.40663417 13.40663417 0 0 0-13.40663573 13.40663416V696.821476a13.40663417 13.40663417 0 0 0 13.40663573 13.40663417h399.07082463a13.40663417 13.40663417 0 0 0 0-26.81326834H170.22019306v-643.51846528H815.88371936V439.32471215a13.40663417 13.40663417 0 0 0 26.8132699 0V26.489740809999944a13.40663417 13.40663417 0 0 0-13.85352286-13.40663416zM409.12642327 270.04360564a13.13850252 13.13850252 0 0 0-9.47402147 3.93261265 13.31725642 13.31725642 0 0 0 0 18.94804302l458.06001779 458.06001937a13.40663417 13.40663417 0 0 0 18.94804459-18.94804456l-458.06001939-458.06001783a12.95974705 12.95974705 0 0 0-9.47402152-3.93261265z"  horiz-adv-x="1024" />

    
    <glyph glyph-name="weibiaoti--26" unicode="&#59144;" d="M638.22495545 765.3442764700001h-256.45402524a14.30040978 14.30040978 0 0 0 0 28.60081955h256.45402524a14.30040978 14.30040978 0 1 0 0-28.60081955zM868.84290581 667.91081307H155.15709419a14.30040978 14.30040978 0 1 0 0 28.60082126h713.68581162a14.30040978 14.30040978 0 0 0 0-28.60082126zM429.53430019 111.24350698a14.30040978 14.30040978 0 0 0-14.30040978 14.30040978V533.10561143a14.30040978 14.30040978 0 1 0 28.60081957 0v-407.56169467a14.30040978 14.30040978 0 0 0-14.30040979-14.30040978zM592.55897806 111.24350698a14.30040978 14.30040978 0 0 0-14.30040979 14.30040978V533.10561143a14.30040978 14.30040978 0 0 0 28.60081957 0v-407.56169467a14.30040978 14.30040978 0 0 0-14.30040978-14.30040978zM779.41767278-25.94509602000005H245.05900681a14.30040978 14.30040978 0 0 0-14.3004098 14.30040978V562.94580064a14.30040978 14.30040978 0 0 0 28.60081958 0V2.6557235300000457h506.23452601V562.94580064a14.30040978 14.30040978 0 0 0 28.60082123 0v-574.59048688a14.30040978 14.30040978 0 0 0-14.77709105-14.30040978z"  horiz-adv-x="1024" />

    
    <glyph glyph-name="weibiaoti--27" unicode="&#59146;" d="M496.74622935 144.99247594999997a14.30040978 14.30040978 0 0 0-14.30041146 14.30040977V556.74895747a14.30040978 14.30040978 0 0 0 28.60082124 0v-397.45607175a14.30040978 14.30040978 0 0 0-14.30040978-14.30040977zM273.65982805 377.32647555000005a14.01440269 14.01440269 0 0 0-9.53360708 3.90877807 14.20507351 14.20507351 0 0 0-0.57201585 20.21124755l222.80039252 234.81273722a14.77709106 14.77709106 0 0 0 20.78326342 0l222.89572877-234.81273722a14.30040978 14.30040978 0 0 0-20.68792715-19.73456627L496.74622935 605.65636081 284.24213059 381.71193489999996a14.39574606 14.39574606 0 0 0-10.58230254-4.38545935zM577.87722326 12.189330609999956h-439.49927815a14.30040978 14.30040978 0 0 0-14.30040977 14.30041145v715.02051588a14.30040978 14.30040978 0 0 0 14.30040977 14.30041145H855.20984816a14.30040978 14.30040978 0 0 0 14.30040978-14.30041145v-425.3895392a14.30040978 14.30040978 0 0 0-28.60081958 0V727.20984816H152.6783566v-686.41969632h425.19886666a14.30040978 14.30040978 0 1 0 0-28.60082123zM885.62205489 12.189330609999956a14.58641855 14.58641855 0 0 0-10.10562462 4.19478685l-185.333318 185.52399051a14.30040978 14.30040978 0 1 0 20.21124755 20.21124755l185.42865424-185.42865426a14.39574606 14.39574606 0 0 0 0-20.21124754 14.58641855 14.58641855 0 0 0-10.20095917-4.29012311zM700.28873689 12.189330609999956a14.39574606 14.39574606 0 0 0-10.10562462 4.19478685 14.20507351 14.20507351 0 0 0 0 20.21124755L875.51643027 221.92868302a14.30040978 14.30040978 0 1 0 20.30658379-20.21124756l-185.42865424-185.42865258a14.39574606 14.39574606 0 0 0-10.10562293-4.09945227z"  horiz-adv-x="1024" />

    
    <glyph glyph-name="weibiaoti--28" unicode="&#59147;" d="M418.15355767 21.842107810000016a12.69161382 12.69161382 0 0 0-5.0945217 1.0725313A13.40663417 13.40663417 0 0 0 404.74692194 35.42749745000003v162.93530118a13.67476739 13.67476739 0 0 0 3.48572553 8.93775663l261.42937652 286.00820611a13.40663417 13.40663417 0 0 0 19.84181882-17.8755133L431.56019185 193.17889918000003v-125.12858976l86.60685958 86.51748185a13.40663417 13.40663417 0 0 0 16.98173746 1.6981739l43.25874092-29.31584031a13.40663417 13.40663417 0 0 0-15.01543032-22.25501465l-34.1422288 23.14878887-101.62229151-102.0691786a13.67476739 13.67476739 0 0 0-9.47402151-3.93261267zM335.47930917 233.39880326000002a13.40663417 13.40663417 0 0 0-7.7758476 2.50257198L137.77613659 370.68274357999996a13.58538964 13.58538964 0 0 0-5.63078658 12.06597121 13.49601193 13.49601193 0 0 0 7.50771594 10.9040622l732.89603006 359.74469794a13.31725642 13.31725642 0 0 0 19.03742077-14.56854321l-94.29333104-486.30332997a13.40663417 13.40663417 0 0 0-26.81326834 5.0945217l89.3775648 459.84756946-688.20724846-337.93657042 171.6049246-121.82162132a13.40663417 13.40663417 0 0 0-7.77584917-24.31069791zM786.56787905 71.17852400000004a13.49601193 13.49601193 0 0 0-9.47402309 3.93261267l-116.19083313 116.19083471a13.49601193 13.49601193 0 0 0 0 18.948043 13.31725642 13.31725642 0 0 0 18.94804303 0l116.19083468-116.19083472a13.40663417 13.40663417 0 0 0-9.47402149-22.88065566zM670.64517756 71.17852400000004a13.67476739 13.67476739 0 0 0-9.47402152 3.93261267 13.49601193 13.49601193 0 0 0 0 18.94804299l116.19083314 116.19083472a13.40663417 13.40663417 0 0 0 18.94804458-18.948043l-116.19083471-116.19083471a13.31725642 13.31725642 0 0 0-9.47402149-3.93261267zM727.13179874 13.261862110000038a132.63630573 132.63630573 0 1 0 132.54692798 132.546928 132.72568347 132.72568347 0 0 0-132.54692798-132.546928z m0 238.36996538a105.8230358 105.8230358 0 1 1 105.73365808-105.82303738 105.91241355 105.91241355 0 0 1-105.73365808 105.82303738z"  horiz-adv-x="1024" />

    
    <glyph glyph-name="bianji" unicode="&#59135;" d="M907.636 306.385a34.91 34.91 0 0 0 69.819 0v-256.954a130.91 130.91 0 0 0-130.886-130.886H177.43A130.91 130.91 0 0 0 46.545 49.431V718.57a130.84 130.84 0 0 0 130.7 130.886h289.443a34.91 34.91 0 0 0 0-69.819H177.245a61.021 61.021 0 0 1-60.881-61.067V49.43a61.09 61.09 0 0 1 61.067-61.067H846.57a61.09 61.09 0 0 1 61.067 61.067V306.362zM410.228 334.615l-18.292-102.167 100.352 19.665 395.87 395.87-82.293 82.292-395.637-395.636z m-57.11 41.635l411.624 411.625a58.182 58.182 0 0 0 82.269 0l98.746-98.746a58.182 58.182 0 0 0 0-82.293L534.11 195.258a34.91 34.91 0 0 0-17.966-9.588L355.28 154.135a34.91 34.91 0 0 0-41.076 40.402l29.207 163.188a34.91 34.91 0 0 0 9.682 18.548z"  horiz-adv-x="1024" />

    
    <glyph glyph-name="yuyuebiaodan" unicode="&#59134;" d="M347.429 548.571h-36.572a18.286 18.286 0 0 0 0 36.572h36.572a18.286 18.286 0 0 0 0-36.572z m329.142 0H493.714a18.286 18.286 0 0 0 0 36.572h182.857a18.286 18.286 0 0 0 0-36.572zM347.43 365.714h-36.572a18.286 18.286 0 0 0 0 36.572h36.572a18.286 18.286 0 0 0 0-36.572z m329.142 0H493.714a18.286 18.286 0 0 0 0 36.572h182.857a18.286 18.286 0 0 0 0-36.572zM493.714 182.857H310.857a18.286 18.286 0 0 0 0 36.572h182.857a18.286 18.286 0 0 0 0-36.572zM530.286-36.571H128a18.286 18.286 0 0 0-18.286 18.285V786.286A18.286 18.286 0 0 0 128 804.57h731.429a18.286 18.286 0 0 0 18.285-18.285v-438.857a18.286 18.286 0 0 0-36.571 0V768H146.286v-768h384a18.286 18.286 0 0 0 0-36.571zM731.429 0a17.189 17.189 0 0 0-12.8 5.486l-73.143 73.143a17.92 17.92 0 0 0 25.6 25.6l60.343-59.978 170.057 169.692a17.92 17.92 0 0 0 25.6-25.6L744.229 5.486a17.189 17.189 0 0 0-12.8-5.486z"  horiz-adv-x="1024" />

    
    <glyph glyph-name="lianjie-" unicode="&#59132;" d="M463.36 179.2l-110.08-110.08c-15.36-15.36-35.84-20.48-56.32-20.48-15.36 0-35.84 7.68-51.2 20.48l-28.16 28.16c-28.16 28.16-28.16 79.36 0 107.52l192 186.88c15.36 15.36 35.84 20.48 56.32 20.48 15.36 0 35.84-7.68 53.76-17.92l17.92-25.6c17.92-17.92 43.52-15.36 56.32 0 17.92 17.92 17.92 38.4 0 56.32l-25.6 25.6c-28.16 28.16-71.68 43.52-110.08 46.08-43.52 0-81.92-17.92-110.08-46.08l-186.88-192c-64-64-64-163.84-2.56-225.28l25.6-25.6c28.16-28.16 71.68-43.52 110.08-46.08 46.08 2.56 84.48 20.48 115.2 51.2l110.08 110.08c17.92 17.92 17.92 38.4 0 56.32-12.8 15.36-38.4 17.92-56.32 0zM911.36 576c0 43.52-15.36 79.36-46.08 110.08l-25.6 25.6c-61.44 61.44-161.28 61.44-225.28-2.56l-110.08-102.4c-17.92-17.92-17.92-38.4 0-56.32 17.92-17.92 46.08-17.92 64 0l110.08 102.4c28.16 28.16 79.36 28.16 107.52 0l25.6-25.6c10.24-10.24 17.92-33.28 17.92-53.76s-7.68-43.52-25.6-61.44l-186.88-186.88c-28.16-28.16-79.36-28.16-107.52 0-17.92 17.92-43.52 15.36-56.32 0-20.48-15.36-17.92-38.4-2.56-53.76 28.16-28.16 69.12-46.08 110.08-46.08 43.52 0 81.92 17.92 117.76 53.76l186.88 186.88c28.16 28.16 48.64 71.68 46.08 110.08z"  horiz-adv-x="1024" />

    
    <glyph glyph-name="lianjie-1" unicode="&#59133;" d="M427.52 593.92c7.68-15.36 25.6-23.04 43.52-15.36 15.36 7.68 23.04 25.6 15.36 43.52l-64 138.24c-7.68 15.36-25.6 23.04-43.52 15.36s-23.04-25.6-15.36-43.52l64-138.24zM563.2 588.8c17.92-2.56 33.28 10.24 35.84 25.6l23.04 151.04c2.56 17.92-10.24 33.28-25.6 35.84-17.92 2.56-33.28-10.24-35.84-25.6l-23.04-151.04c-5.12-17.92 7.68-33.28 25.6-35.84zM209.92 565.76l145.92-51.2c15.36-5.12 35.84 2.56 40.96 20.48 5.12 15.36-2.56 35.84-20.48 40.96l-145.92 51.2c-15.36 5.12-35.84-2.56-40.96-20.48s5.12-33.28 20.48-40.96zM970.24 373.76l-5.12 35.84c-10.24 84.48-89.6 145.92-179.2 135.68l-151.04-12.8c-25.6-2.56-38.4-20.48-35.84-46.08 2.56-25.6 25.6-43.52 51.2-38.4l151.04 12.8c40.96 5.12 79.36-25.6 84.48-66.56l5.12-35.84c2.56-15.36-5.12-35.84-17.92-53.76-12.8-17.92-30.72-30.72-56.32-33.28l-261.12-33.28c-40.96-5.12-79.36 25.6-84.48 66.56-2.56 25.6-25.6 38.4-46.08 35.84-25.6 2.56-38.4-20.48-35.84-40.96 5.12-40.96 25.6-79.36 58.88-104.96 33.28-25.6 76.8-35.84 125.44-30.72l261.12 33.28c40.96 5.12 84.48 25.6 104.96 58.88 25.6 35.84 35.84 71.68 30.72 117.76zM412.16 153.6l-110.08-110.08c-15.36-15.36-35.84-20.48-56.32-20.48-15.36 0-35.84 7.68-51.2 20.48l-28.16 28.16c-28.16 28.16-28.16 79.36 0 107.52l192 186.88c15.36 15.36 35.84 20.48 56.32 20.48 15.36 0 35.84-7.68 53.76-17.92l17.92-25.6c17.92-17.92 43.52-15.36 56.32 0 17.92 17.92 17.92 38.4 0 56.32l-25.6 25.6c-28.16 28.16-71.68 43.52-110.08 46.08-43.52 0-81.92-17.92-110.08-46.08l-186.88-192c-64-64-64-163.84-2.56-225.28l25.6-25.6c28.16-28.16 71.68-43.52 110.08-46.08 46.08 2.56 84.48 20.48 115.2 51.2l110.08 110.08c17.92 17.92 17.92 38.4 0 56.32-12.8 15.36-38.4 17.92-56.32 0z"  horiz-adv-x="1024" />

    
    <glyph glyph-name="iiii-" unicode="&#59126;" d="M646.18090615 89.42062383999996H382.90058894c-8.10093312 0-14.72896907 6.62803595-14.72896907 14.72896907v34.09756329c-100.52521149 30.70990033-169.82501031 123.64969232-169.82501031 229.84555752v10.31027757c0 8.10093312 6.62803595 14.72896907 14.72896907 14.72896906h599.91089852c8.10093312 0 14.72896907-6.62803595 14.72896907-14.72896906v-10.31027757c0-104.64932303-68.04783533-197.14724768-166.80557229-228.81453027V104.14959291000002c0-8.10093312-6.62803595-14.72896907-14.72896778-14.72896907z m-248.55134816 29.45793813h233.8223791v31.37270393c0 6.62803595 4.49233518 12.51962332 10.89943618 14.21345416 90.36222389 24.37644304 153.91772402 105.82764025 155.83248982 199.13565847H227.87819268c1.98841078-94.70726911 66.64858316-176.52669125 158.70463788-199.94575204a14.72896907 14.72896907 0 0 0 11.12037114-14.28709914V118.87856196999996zM818.9517095 589.83733811H522.08934389c-8.10093312 0-14.72896907 6.62803595-14.72896905 14.72896907s6.62803595 14.72896907 14.72896905 14.72896907h296.9360106c8.10093312 0 14.72896907-6.62803595 14.72896907-14.72896907s-6.62803595-14.72896907-14.80261406-14.72896907zM288.92976842 589.83733811H205.0482905c-8.10093312 0-14.72896907 6.62803595-14.72896907 14.72896907s6.62803595 14.72896907 14.72896907 14.72896907h83.88147792a14.72896907 14.72896907 0 1 0 0-29.45793814zM818.9517095 490.34315516H522.08934389c-8.10093312 0-14.72896907 6.62803595-14.72896905 14.72896777s6.62803595 14.72896907 14.72896905 14.72896906h296.9360106c8.10093312 0 14.72896907-6.62803595 14.72896907-14.72896906s-6.62803595-14.72896907-14.80261406-14.72896777zM288.92976842 490.34315516H205.0482905c-8.10093312 0-14.72896907 6.62803595-14.72896907 14.72896777s6.62803595 14.72896907 14.72896907 14.72896906h83.88147792a14.72896907 14.72896907 0 1 0 0-29.45793683zM286.42584272 408.96560165c-5.15513878 0-10.23663388 2.72485937-12.88784697 7.5854195-3.90317658 7.14354958-1.3256072 16.05457626 5.74429739 20.03139782 24.89195667 13.77158553 22.24074227 31.22541396 21.87251864 33.21382475-0.14728997 0.95738354-0.36822364 2.20934575-0.36822364 3.16672799V584.46126565c0 65.10204229 58.54765132 91.76147607 61.05157572 92.86614702a14.72896907 14.72896907 0 0 0 19.44223793-7.51177322 14.65532409 14.65532409 0 0 0-7.43812951-19.36859423c-1.98841078-0.88373856-43.52410231-20.39962147-43.52410232-65.91213588v-110.31997543c1.3256072-8.76373671 3.09308301-41.31475786-36.74877637-63.33456646-2.28299074-1.3256072-4.71327014-1.9147658-7.14355087-1.9147658zM367.80339622 408.96560165c-5.15513878 0-10.23663388 2.72485937-12.88784825 7.5854195-3.90317658 7.14354958-1.3256072 16.05457626 5.74429738 20.03139782 24.89195667 13.77158553 22.24074227 31.22541396 21.87251865 33.21382475-0.14728997 0.95738354-0.36822364 2.20934575-0.36822364 3.16672799V584.46126565c0 65.10204229 58.54765132 91.76147607 61.05157573 92.86614702a14.72896907 14.72896907 0 0 0 19.44223792-7.51177322 14.65532409 14.65532409 0 0 0-7.43812822-19.36859423c-1.9147658-0.88373856-43.52410231-20.32597648-43.5241036-65.91213588v-110.31997543c1.3256072-8.76373671 3.09308301-41.31475786-36.74877639-63.33456646-2.28299074-1.3256072-4.71327014-1.9147658-7.14354958-1.9147658zM450.94842426 408.96560165c-5.15513878 0-10.23663388 2.72485937-12.88784696 7.5854195-3.90317658 7.14354958-1.3256072 16.05457626 5.7442974 20.03139782 24.89195667 13.77158553 22.24074227 31.22541396 21.87251864 33.21382475-0.14728997 0.95738354-0.36822364 2.20934575-0.36822493 3.16672799V584.46126565c0 65.10204229 58.54765132 91.76147607 61.05157572 92.86614702a14.72896907 14.72896907 0 0 0 19.44223922-7.51177322 14.65532409 14.65532409 0 0 0-7.43812953-19.36859423c-1.98841078-0.88373856-43.52410231-20.39962147-43.52410231-65.91213588v-110.31997543c1.3256072-8.76373671 3.09308301-41.31475786-36.74877768-63.33456646-2.28299074-1.3256072-4.71327014-1.9147658-7.14354957-1.9147658z"  horiz-adv-x="1024" />

    
    <glyph glyph-name="iiii-1" unicode="&#59127;" d="M774.91209284 219.19664750000004H251.98767248c-7.5946248 0-13.8084085 6.2137837-13.80840729 13.8084085v55.71692681c0 128.83244919 90.51411555 237.78078932 217.27530311 264.29293394-0.06904218 1.24275675-0.13808435 2.41647131-0.13808435 3.65922804 0 31.69029689 26.16693373 57.51201974 58.34052464 57.51202095s58.34052464-25.75268189 58.34052463-57.51202095c0-1.24275675-0.06904218-2.48551348-0.13808314-3.72827022 126.48501885-26.65022774 216.86105125-135.5985691 216.86105126-264.22389176v-55.71692681c0-7.66366698-6.14474153-13.8084085-13.8084085-13.8084085z m-509.11601186 27.616817h495.30760336v41.90851831c0 119.71889895-87.40722369 220.45123713-207.74750223 239.57588346a13.76698246 13.76698246 0 0 0-10.77055761 18.36518241c1.17371457 3.31401838 1.79509294 6.69707773 1.79509293 10.01109611 0 16.43200634-13.8084085 29.89520396-30.72370884 29.89520396s-30.72370885-13.39415545-30.72370765-29.89520396c0-3.31401838 0.62137837-6.69707773 1.79509294-9.94205393 1.44988327-3.86635457 1.03563022-8.21600317-1.10467239-11.73714686-2.07126164-3.52114369-5.66144751-6.00665717-9.7349286-6.62803555-120.61644603-18.98656078-208.16175408-119.71889895-208.16175408-239.64492564v-41.90851831zM328.07200237 316.96017817999996c-2.14030382 0-4.28060641 0.48329402-6.35186806 1.51892423a13.89125814 13.89125814 0 0 0-5.93761499 18.6413511c49.29601778 95.13993284 118.47614222 121.99728711 121.37590753 123.10195951 7.11133078 2.62359783 15.12020741-0.96658804 17.81284742-8.0779188 2.69264001-7.11133078-0.89754707-15.05116524-8.00887663-17.74380404-0.8285049-0.34520966-62.55208889-24.92417699-106.60091221-109.91492938-2.41647131-4.83294261-7.24941392-7.52558262-12.28948306-7.52558262zM823.1724792 153.88287644000002H200.8275208c-7.5946248 0-13.8084085 6.2137837-13.8084085 13.8084085s6.2137837 13.8084085 13.8084085 13.80840849h622.3449584a13.8084085 13.8084085 0 1 0 0-27.61681699z"  horiz-adv-x="1024" />

    
    <glyph glyph-name="iiii-2" unicode="&#59128;" d="M583.43549829 263.14881073000004H228.32006131v14.72896908c0 93.30801693 75.92783347 169.16220672 169.16220671 169.16220671h16.71737986c93.30801693 0 169.16220672-75.92783347 169.16220542-169.16220671v-14.72896908z m-324.84740657 29.45793813H553.24111287c-7.36448454 70.18353609-66.86951812 124.97529952-138.9678213 124.97529952h-16.71737856c-72.09830189 0.07364499-131.60333547-54.79176343-138.96782129-124.97529952zM609.50577346 199.66695558000004H202.76530106c-8.10093312 0-14.72896907 6.62803595-14.72896907 14.72896907s6.62803595 14.72896907 14.72896907 14.72896907h406.66682742c8.10093312 0 14.72896907-6.62803595 14.72896906-14.72896907s-6.55439097-14.72896907-14.65532408-14.72896907zM522.67850251 65.92791935000002H289.07705709c-33.50840339 0-60.75699579 27.24859238-60.75699578 60.7569958v44.92335448H583.43549829v-44.92335448c0-33.50840339-27.24859238-60.75699579-60.75699578-60.7569958z m-264.90050305 76.22241344v-15.46541764a31.37270394 31.37270394 0 0 1 31.29905763-31.29905896h233.60144542a31.37270394 31.37270394 0 0 1 31.29905894 31.29905896v15.46541764H257.77799946zM778.88891385 74.83894476h-220.93453083c-8.10093312 0-14.72896907 6.62803595-14.72896906 14.72896905s6.62803595 14.72896907 14.72896906 14.72896907h193.24406981l28.57419958 445.77223953c0.51551362 8.10093312 7.51177452 14.28709915 15.61270632 13.77158682 8.10093312-0.51551362 14.28709915-7.51177452 13.77158682-15.61270763l-30.2680317-473.38905684zM821.23469894 534.45641609H468.18131774c-8.10093312 0-14.72896907 6.62803595-14.72896906 14.72896905s6.62803595 14.72896907 14.72896906 14.72896907h353.0533812c8.10093312 0 14.72896907-6.62803595 14.72896907-14.72896907s-6.62803595-14.72896907-14.72896907-14.72896905zM498.6702831 413.16335819c-7.95364315 0-14.5080341 6.333456-14.72896905 14.36074412l-2.87214807 113.19212608a14.72896907 14.72896907 0 0 0 14.36074415 15.0971927h0.36822364c7.95364315 0 14.5080341-6.333456 14.72896906-14.36074541L513.39925218 428.18690591a14.72896907 14.72896907 0 0 0-14.36074414-15.09719272c-0.07364499 0.07364499-0.22093497 0.07364499-0.36822494 0.073645zM650.01043775 235.75292965999995c-8.10093312 0-14.72896907 6.62803595-14.72896907 14.72896778V665.61788292l77.25344066 35.12859053c7.36448454 3.38766297 16.12822124 0.07364499 19.51588423-7.29083954 3.38766297-7.43812953 0.07364499-16.12822124-7.29083955-19.51588292l-60.0205472-27.32223737v-396.13561618a14.72896907 14.72896907 0 0 0-14.72896907-14.72896778z"  horiz-adv-x="1024" />

    
    <glyph glyph-name="iiii-3" unicode="&#59129;" d="M658.5532395 76.53277689000004H572.09419218c-8.10093312 0-14.72896907 6.62803595-14.72896776 14.72896906v117.97903992c-3.01943803 8.32186678-17.15924849 41.90391647-50.5203632 41.90391516s-46.91176528-33.58204838-49.71026964-41.83027018v-118.12632989c0-8.10093312-6.62803595-14.72896907-14.72896906-14.72896907H283.84827331c-8.10093312 0-14.72896907 6.62803595-14.72896905 14.72896907V318.16150913h-55.45456702a14.70687518 14.70687518 0 0 0-11.26766112 24.15550937l292.29638542 349.2974946c2.79850435 3.31401797 6.9226159 5.22878378 11.26766112 5.30242876h0.07364499c4.34504521 0 8.46915676-1.9147658 11.26766112-5.22878378l239.05116285-282.35433149c5.22878378-6.18616732 4.49233518-15.53906263-1.69383084-20.76784642s-15.53906263-4.49233518-20.7678464 1.69383214L506.03476765 659.3580719 245.18473115 347.61944726h38.58989718c8.10093312 0 14.72896907-6.62803595 14.72896908-14.72896906v-226.89976448h129.09941106V211.67106528c0 1.3256072 0.22093497 2.72485937 0.51551491 3.97682157 6.333456 22.46167724 30.93083402 65.0283973 78.65269284 65.0283973 59.50503358 0 78.57904787-62.15624796 79.38914144-64.80746234 0.36822364-1.3256072 0.5891586-2.79850435 0.58915861-4.19775653v-105.68035156h71.73007824c8.10093312 0 14.72896907-6.62803595 14.72896906-14.72896777s-6.48074597-14.72896907-14.65532407-14.72896906zM724.46537406 71.08305814000005c-29.08971319 0-50.96223183 37.85344991-50.96223183 88.07923317 0 6.70168094 0.36822364 13.2560719 1.17831852 19.73681786a99.98024065 99.98024065 0 0 0-49.56298095 86.23811234c0 55.08634338 44.8497095 99.93605287 99.93605416 99.93605418s99.93605287-44.8497095 99.93605289-99.93605418c0-36.38055274-19.5895279-69.37344252-50.74129817-86.97455962 0.73644858-6.18616732 1.10467223-12.5932683 1.10467352-19.00037058 0.07364499-50.22578325-21.79887364-88.07923315-50.88858814-88.07923317z m0.66280359 264.45863444c-38.88447714 0-70.47811603-31.5936376-70.47811474-70.47811605 0-27.98504096 16.57008987-53.31886756 42.27214011-64.51288238 6.333456-2.79850435 9.86840894-9.64747397 8.54280175-16.42279991-1.62018715-7.95364315-2.43027941-16.34915491-2.43027942-24.96560293 0-36.38055274 13.9188755-58.62129631 21.5042937-58.62129503s21.50429499 22.24074227 21.504295 58.62129503c0 8.39551178-0.81009357 16.64373486-2.35663572 24.52373301-1.3256072 6.84897091 2.28299074 13.77158553 8.76373671 16.4227999a70.32346144 70.32346144 0 0 1 43.22952365 65.02839729c-0.07364499 38.81083216-31.66728259 70.40447105-70.55176104 70.40447107zM428.78132698 311.38618449h-62.30353795c-8.10093312 0-14.72896907 6.62803595-14.72896906 14.72896778s6.62803595 14.72896907 14.72896906 14.72896905h62.30353795a14.72896907 14.72896907 0 1 0 0-29.45793683z"  horiz-adv-x="1024" />

    
    <glyph glyph-name="iiii-4" unicode="&#59130;" d="M350.86508141 472.88932673c-3.68224161 0-7.36448454 1.39925218-10.23663258 4.12411154-5.81794238 5.67065241-5.96523235 15.02354772-0.29457994 20.8414901l158.33641421 163.34426434c2.72485937 2.87214934 6.55439097 4.4186902 10.45756756 4.49233519h0.07364499c3.90317658 0 7.73270818-1.54654215 10.45756754-4.34504521L681.38314038 497.92857337c5.7442974-5.81794238 5.67065241-15.09719271-0.07364369-20.84149012-5.7442974-5.7442974-15.09719271-5.67065241-20.84149139 0.07364369L509.34878562 629.90013377 361.39629394 477.30801693c-2.87214934-2.94579434-6.70168094-4.4186902-10.53121253-4.4186902zM703.47659398 102.30847210000002H315.44191221c-6.84897091 0-12.74055828 4.71327014-14.36074542 11.3413061l-50.96223182 214.52742983h-32.99288979c-8.10093312 0-14.72896907 6.62803595-14.72896906 14.72896907V428.40784087c0 8.10093312 6.62803595 14.72896907 14.72896906 14.72896907h589.74790964c8.10093312 0 14.72896907-6.62803595 14.72896906-14.72896907v-85.50166377c0-8.10093312-6.62803595-14.72896907-14.72896906-14.72896907h-35.12859054l-53.98166986-214.67471981a14.72896907 14.72896907 0 0 0-14.28710044-11.19401612z m-376.398797 29.45793813h364.91020093l53.98167116 214.67471981c1.62018715 6.55439097 7.51177452 11.12037115 14.28709912 11.12037114h31.88821756v56.04372564H231.85501425v-56.04372564h29.89980676c6.84897091 0 12.74055828-4.71327014 14.36074414-11.3413061l50.96223183-214.45378485zM684.62351467 273.01721968000004H342.1013447c-8.10093312 0-14.72896907 6.62803595-14.72896777 14.72896907s6.62803595 14.72896907 14.72896777 14.72896906h342.59581366c8.10093312 0 14.72896907-6.62803595 14.72896906-14.72896906s-6.62803595-14.72896907-14.80261275-14.72896907zM653.3981007 202.09723499999996H362.9428361c-8.10093312 0-14.72896907 6.62803595-14.72896907 14.72896906s6.62803595 14.72896907 14.72896907 14.72896908h290.5289096c8.10093312 0 14.72896907-6.62803595 14.72896778-14.72896908s-6.62803595-14.72896907-14.80261278-14.72896906z"  horiz-adv-x="1024" />

    
    </font>
</defs>
</svg>
